<svg width="1923" height="1035" viewBox="0 0 1923 1035" fill="none" xmlns="http://www.w3.org/2000/svg">
<g clip-path="url(#clip0)">
<mask id="mask0" mask-type="alpha" maskUnits="userSpaceOnUse" x="0" y="0" width="1923" height="1036">
<path d="M1922 1H1V880.415C533 1086.53 1333 1086.53 1922 880.415V1Z" fill="url(#paint0_linear)" stroke="#7131FF"/>
</mask>
<g mask="url(#mask0)">
<path d="M1922 -1H1V878.415C533 1084.53 1333 1084.53 1922 878.415V-1Z" fill="url(#paint1_linear)" stroke="#7131FF"/>
<g opacity="0.5">
<path opacity="0.5" d="M254.375 264.062C254.301 264.186 254.227 264.31 254.153 264.434C206.407 344.159 111.559 378.323 26.3448 352.734C0.12915 344.861 -30.2647 351.754 -44.3108 375.208L-87 446.49C70.2604 540.67 273.994 489.7 368.051 332.645C368.125 332.521 368.199 332.397 368.273 332.273L254.375 264.062Z" fill="#7131FF"/>
<path opacity="0.5" d="M254.376 264.063C254.45 263.939 254.525 263.815 254.599 263.691C302.345 183.966 287.691 84.2234 224.907 21.1797C205.592 1.78486 197.322 -28.2636 211.368 -51.7175L254.057 -122.999C411.318 -28.8191 462.554 174.847 368.497 331.902C368.423 332.026 368.349 332.15 368.274 332.274L254.376 264.063Z" fill="#7131FF"/>
</g>
<path opacity="0.8" d="M1684.5 369C1775.9 369 1850 294.903 1850 203.5C1850 112.097 1775.9 38 1684.5 38C1593.1 38 1519 112.097 1519 203.5C1519 294.903 1593.1 369 1684.5 369Z" fill="#AF64FF"/>
<path opacity="0.5" d="M624 750C694.14 750 751 693.14 751 623C751 552.86 694.14 496 624 496C553.86 496 497 552.86 497 623C497 693.14 553.86 750 624 750Z" fill="#7131FF"/>
<path opacity="0.5" d="M1025.5 191C1060.57 191 1089 162.57 1089 127.5C1089 92.4299 1060.57 64 1025.5 64C990.43 64 962 92.4299 962 127.5C962 162.57 990.43 191 1025.5 191Z" fill="#7131FF"/>
<g opacity="0.4">
<path opacity="0.4" d="M1280.33 705.461C1280.39 705.404 1280.45 705.347 1280.51 705.29C1320.29 668.715 1378.82 665.318 1422.11 693.65C1435.43 702.366 1453.51 703.538 1465.22 692.778L1500.78 660.077C1428.64 581.61 1306.63 576.409 1228.26 648.459C1228.2 648.516 1228.14 648.573 1228.08 648.63L1280.33 705.461Z" fill="#AF64FF"/>
<path opacity="0.4" d="M1280.33 705.46C1280.27 705.517 1280.2 705.573 1280.14 705.63C1240.36 742.205 1232.07 800.239 1256.68 845.753C1264.25 859.755 1263.9 877.874 1252.2 888.634L1216.63 921.335C1144.48 842.868 1149.53 720.85 1227.89 648.8C1227.95 648.743 1228.02 648.686 1228.08 648.629L1280.33 705.46Z" fill="#AF64FF"/>
</g>
<path d="M1922 -1H1V878.415C533 1084.53 1333 1084.53 1922 878.415V-1Z" fill="url(#paint2_linear)" stroke="#7131FF"/>
<path d="M1922 -1H1V878.415C533 1084.53 1333 1084.53 1922 878.415V-1Z" fill="url(#paint3_linear)" stroke="#7131FF"/>
<path d="M1545.51 11.609C1367.42 157.637 1367.57 190.83 1390.94 240.331C1414.31 289.832 1458.11 266.09 1612.4 131.096C1766.68 -3.8988 1762.5 -8.01698 1758.45 -79.3033C1712.25 -125.395 1723.61 -134.419 1545.51 11.609Z" fill="white" fill-opacity="0.02"/>
<path d="M1856.44 26.9591C1683.15 163.187 1687.89 189.072 1720.11 224.779C1752.33 260.488 1796.62 236.481 1945.58 111.842C2094.52 -12.7987 2089.4 -15.4891 2075.17 -70.6143C2018.64 -100.808 2029.72 -109.269 1856.44 26.9591Z" fill="white" fill-opacity="0.05"/>
<path d="M1563.76 440.218C1734.52 301.512 1729.31 275.754 1696.45 240.635C1663.59 205.513 1619.75 230.174 1473.11 356.929C1326.48 483.686 1331.63 486.289 1346.86 541.074C1403.93 570.305 1393 578.926 1563.76 440.218Z" fill="white" fill-opacity="0.02"/>
<path d="M1895.86 220.054C1721.83 355.085 1726.36 381.002 1758.25 416.928C1790.14 452.854 1834.54 429.154 1984.2 305.542C2133.84 181.931 2128.77 179.206 2114.97 123.986C2058.77 93.4075 2069.91 85.022 1895.86 220.054Z" fill="white" fill-opacity="0.03"/>
<path d="M1603.35 656.198C1774.09 517.084 1768.88 491.245 1736.01 456.011C1703.15 420.774 1659.31 445.506 1512.69 572.635C1366.07 699.766 1371.23 702.377 1386.47 757.336C1443.54 786.667 1432.61 795.314 1603.35 656.198Z" fill="white" fill-opacity="0.02"/>
<path d="M1865.42 474.61C1705.3 623.814 1712.3 649.265 1747.49 682.396C1782.67 715.527 1824.56 688.176 1961.52 552.403C2098.49 416.629 2093.17 414.338 2074.14 360.457C2015.28 334.699 2025.55 325.406 1865.42 474.61Z" fill="white" fill-opacity="0.02"/>
<g opacity="0.2">
<path opacity="0.5" d="M256.375 258.061C256.301 258.185 256.227 258.309 256.153 258.433C208.407 338.158 113.559 372.322 28.3448 346.733C2.12915 338.86 -28.2647 345.753 -42.3108 369.207L-85 440.489C72.2604 534.669 275.994 483.699 370.051 326.644C370.125 326.52 370.199 326.396 370.273 326.272L256.375 258.061Z" fill="#2C62DE"/>
<path opacity="0.5" d="M256.376 258.062C256.45 257.938 256.525 257.814 256.599 257.69C304.345 177.965 289.691 78.2224 226.907 15.1787C207.592 -4.21611 199.322 -34.2646 213.368 -57.7185L256.057 -129C413.318 -34.8201 464.554 168.846 370.497 325.901C370.423 326.025 370.349 326.149 370.274 326.273L256.376 258.062Z" fill="#2C62DE"/>
</g>
<path opacity="0.3" d="M1739.5 885C1776.78 885 1807 854.331 1807 816.5C1807 778.668 1776.78 748 1739.5 748C1702.22 748 1672 778.668 1672 816.5C1672 854.331 1702.22 885 1739.5 885Z" fill="#3C5AE7"/>
<g opacity="0.4">
<path opacity="0.4" d="M1011.41 718.692C1011.49 718.678 1011.58 718.663 1011.66 718.649C1065.02 710.108 1115.7 739.583 1136.16 787.103C1142.45 801.724 1156.88 812.681 1172.58 810.172L1220.29 802.533C1203.44 697.282 1104.58 625.598 999.457 642.419C999.376 642.434 999.294 642.448 999.212 642.462L1011.41 718.692Z" fill="#578DF5"/>
<path opacity="0.4" d="M1011.41 718.691C1011.33 718.706 1011.24 718.714 1011.16 718.728C957.801 727.269 918.855 771.085 914.253 822.621C912.837 838.475 902.543 853.391 886.848 855.905L839.137 863.539C822.287 758.283 893.849 659.325 998.961 642.499C999.042 642.485 999.132 642.476 999.213 642.461L1011.41 718.691Z" fill="#578DF5"/>
</g>
<path opacity="0.5" d="M985.5 183C1020.57 183 1049 154.57 1049 119.5C1049 84.4299 1020.57 56 985.5 56C950.43 56 922 84.4299 922 119.5C922 154.57 950.43 183 985.5 183Z" fill="#5874F8"/>
<path d="M341.793 795.677C401.232 843.213 481.437 833.077 526.812 777.737C572.189 722.397 564.181 630.383 506.114 595.273C448.046 560.164 362.782 546.383 321.094 613.214C279.405 680.044 282.355 748.141 341.793 795.677Z" fill="#CAFFD0"/>
<path d="M289.863 553.69C294.373 557.342 300.255 556.815 303.446 552.874C306.637 548.933 305.795 542.154 301.42 539.418C297.045 536.682 290.725 535.439 287.837 540.234C284.948 545.029 285.353 550.038 289.863 553.69Z" fill="#C9E4E7"/>
<path d="M1681.56 820.642C1699.64 835.289 1724.45 831.678 1738.74 814.024C1753.04 796.37 1751.06 767.455 1733.33 756.711C1715.59 745.967 1689.36 742.078 1676.14 763.329C1662.92 784.579 1663.47 805.994 1681.56 820.642Z" fill="#C9E4E7"/>
</g>
</g>
<defs>
<linearGradient id="paint0_linear" x1="1922" y1="1.00023" x2="-57.3837" y2="844.716" gradientUnits="userSpaceOnUse">
<stop stop-color="#7131FF"/>
<stop offset="1" stop-color="#AF64FF"/>
</linearGradient>
<linearGradient id="paint1_linear" x1="1922" y1="-0.999773" x2="-57.3837" y2="842.716" gradientUnits="userSpaceOnUse">
<stop stop-color="#2563DA"/>
<stop offset="1" stop-color="#578DF5"/>
</linearGradient>
<linearGradient id="paint2_linear" x1="1922" y1="-0.999773" x2="-57.3837" y2="842.716" gradientUnits="userSpaceOnUse">
<stop stop-color="#2563DA"/>
<stop offset="1" stop-color="#578DF5"/>
</linearGradient>
<linearGradient id="paint3_linear" x1="1922" y1="-0.999773" x2="-57.3837" y2="842.716" gradientUnits="userSpaceOnUse">
<stop stop-color="#2563DA"/>
<stop offset="1" stop-color="#578DF5"/>
</linearGradient>
<clipPath id="clip0">
<rect width="1923" height="1035" fill="white"/>
</clipPath>
</defs>
</svg>
