<svg width="1052" height="213" viewBox="0 0 1052 213" fill="none" xmlns="http://www.w3.org/2000/svg">
<g clip-path="url(#clip0)">
<path d="M52.3149 113.349C56.7783 115.113 62.5992 114.859 65.7576 112.955C68.9159 111.052 68.0819 107.778 63.7523 106.456C59.4227 105.135 53.1679 104.534 50.3097 106.85C47.4515 109.166 47.8516 111.586 52.3149 113.349Z" fill="#00D3AE"/>
<path d="M1150.97 0H-22.7617V284H1150.97V0Z" fill="#4E54C8"/>
<path d="M144.399 169.136C163.157 183.032 188.469 180.069 202.789 163.892C217.109 147.716 214.582 120.82 196.256 110.557C177.931 100.294 151.022 96.2658 137.866 115.801C124.71 135.336 125.64 155.241 144.399 169.136Z" fill="#595FCA"/>
<path d="M104.988 105.558C109.644 109.181 115.717 108.658 119.012 104.748C122.307 100.839 121.437 94.1135 116.92 91.3992C112.403 88.6849 105.878 87.4518 102.896 92.2087C99.9143 96.9657 100.332 101.935 104.988 105.558Z" fill="#595FCA"/>
<path d="M1035.21 222.996C932.753 268.091 936.28 276.317 956.82 287.433C977.361 298.549 1003.81 290.478 1091.69 249.307C1179.57 208.135 1176.38 207.322 1166.35 189.84C1131.09 180.707 1137.66 177.902 1035.21 222.996Z" fill="white" fill-opacity="0.06"/>
<path d="M796.906 168.317C812.944 179.067 834.935 176.417 847.61 163.459C860.286 150.502 858.53 129.279 842.807 121.394C827.086 113.508 803.824 110.654 792.103 126.251C780.382 141.848 780.868 157.566 796.906 168.317Z" fill="#595FCA"/>
<path d="M444.083 40.5857C444.046 40.5874 444.01 40.5891 443.974 40.5908C420.238 41.3193 400.436 26.3728 395.041 5.51848C393.381 -0.897756 387.93 -6.22046 380.945 -6.0081L359.725 -5.35502C359.341 39.3271 396.936 74.3862 443.696 72.9529C443.732 72.9512 443.769 72.9496 443.805 72.9479L444.083 40.5857Z" fill="#5359C9"/>
<path d="M444.082 40.5863C444.119 40.5846 444.158 40.5859 444.194 40.5843C467.93 39.8558 487.997 23.6875 493.75 2.48879C495.521 -4.03251 501.068 -9.69328 508.05 -9.90838L529.273 -10.5588C528.892 34.1261 490.674 71.51 443.917 72.9461C443.88 72.9478 443.841 72.9467 443.804 72.9484L444.082 40.5863Z" fill="#5359C9"/>
<path opacity="0.5" d="M987.528 55.9676C987.504 55.9386 987.481 55.9095 987.457 55.8805C972.258 37.1705 972.154 10.151 985.695 -9.52578C989.86 -15.5792 990.809 -23.9062 986.338 -29.4104L972.749 -46.1389C936.387 -13.6624 931.18 42.5443 961.121 79.4021C961.145 79.4311 961.168 79.4602 961.192 79.4892L987.528 55.9676Z" fill="#595FCA"/>
<path opacity="0.5" d="M987.529 55.9681C987.552 55.9972 987.576 56.0265 987.6 56.0555C1002.8 74.7655 1028.22 79.1713 1048.9 68.2843C1055.26 64.9349 1063.26 65.2774 1067.73 70.7816L1081.32 87.51C1044.95 119.987 991.204 116.435 961.263 79.5771C961.24 79.548 961.216 79.519 961.193 79.4897L987.529 55.9681Z" fill="#595FCA"/>
</g>
<defs>
<clipPath id="clip0">
<rect width="1052" height="213" fill="white"/>
</clipPath>
</defs>
</svg>
