<svg width="1058" height="304" viewBox="0 0 1058 304" fill="none" xmlns="http://www.w3.org/2000/svg">
<g clip-path="url(#clip0)">
<path d="M52.6121 161.775C57.101 164.293 62.955 163.93 66.1314 161.213C69.3078 158.496 68.469 153.823 64.1148 151.937C59.7604 150.051 53.47 149.194 50.5954 152.5C47.7209 155.805 48.1233 159.258 52.6121 161.775Z" fill="#00D3AE"/>
<path d="M1157.53 0H-22.8926V405.333H1157.53V0Z" fill="#4E54C8"/>
<path d="M103.109 264.404C126.387 284.15 157.798 279.94 175.569 256.952C193.34 233.965 190.204 195.744 167.463 181.159C144.721 166.576 111.329 160.851 95.0025 188.612C78.6759 216.372 79.8309 244.659 103.109 264.404Z" fill="#595FCA"/>
<path d="M53.985 173.53C59.8055 178.678 67.396 177.935 71.5147 172.379C75.6333 166.823 74.5457 157.267 68.8998 153.409C63.2538 149.552 55.0973 147.8 51.3701 154.56C47.6429 161.32 48.1646 168.381 53.985 173.53Z" fill="#595FCA"/>
<path d="M1041.11 318.268C938.073 382.627 941.619 394.369 962.276 410.233C982.935 426.098 1009.54 414.579 1097.91 355.818C1186.29 297.057 1183.09 295.896 1173 270.945C1137.54 257.91 1144.14 253.908 1041.11 318.268Z" fill="white" fill-opacity="0.06"/>
<path d="M790.953 261.309C810.778 276.898 837.961 273.055 853.63 254.266C869.298 235.478 867.127 204.705 847.693 193.271C828.259 181.837 799.505 177.698 785.017 200.314C770.528 222.929 771.128 245.72 790.953 261.309Z" fill="#595FCA"/>
<path d="M414.386 50.7867C414.338 50.7893 414.29 50.792 414.242 50.7946C382.837 51.9394 356.638 28.4502 349.5 -4.32385C347.304 -14.4074 340.092 -22.7724 330.85 -22.4386L302.774 -21.4123C302.266 48.8086 352.007 103.906 413.874 101.654C413.922 101.651 413.971 101.649 414.019 101.646L414.386 50.7867Z" fill="#5359C9"/>
<path d="M414.385 50.7878C414.433 50.7852 414.485 50.7873 414.533 50.7847C445.938 49.6399 472.488 24.2303 480.1 -9.08486C482.443 -19.3335 489.782 -28.2298 499.019 -28.5678L527.099 -29.59C526.595 40.6352 476.029 99.3866 414.166 101.643C414.118 101.646 414.065 101.644 414.017 101.647L414.385 50.7878Z" fill="#5359C9"/>
<path opacity="0.5" d="M976.137 57.8401C976.096 57.7999 976.055 57.7597 976.014 57.7195C949.672 31.8186 946.412 -3.08363 965.718 -26.9415C971.657 -34.2812 972.215 -44.9253 964.465 -52.5449L940.912 -75.7027C886.734 -37.9302 884.882 34.0533 936.775 85.0768C936.816 85.117 936.857 85.1572 936.898 85.1974L976.137 57.8401Z" fill="#595FCA"/>
<path opacity="0.5" d="M976.138 57.8403C976.179 57.8805 976.22 57.921 976.261 57.9612C1002.6 83.8621 1043.59 92.463 1075.27 80.7731C1085.02 77.1767 1097.78 78.5342 1105.53 86.1538L1129.08 109.311C1074.9 147.084 988.915 136.342 937.021 85.3185C936.98 85.2783 936.939 85.2381 936.899 85.1976L976.138 57.8403Z" fill="#595FCA"/>
<g clip-path="url(#clip1)">
<path d="M943 102.099H752.924V214.148H943V102.099Z" fill="#E6E6E6"/>
<path d="M937.565 116.153H758.359V207.519H937.565V116.153Z" fill="white"/>
<path d="M942.918 102H752.842V109.433H942.918V102Z" fill="#9CA0E9"/>
<path d="M758.842 107.178C759.669 107.178 760.339 106.561 760.339 105.8C760.339 105.039 759.669 104.422 758.842 104.422C758.016 104.422 757.346 105.039 757.346 105.8C757.346 106.561 758.016 107.178 758.842 107.178Z" fill="white"/>
<path d="M764.526 107.178C765.353 107.178 766.023 106.561 766.023 105.8C766.023 105.039 765.353 104.422 764.526 104.422C763.699 104.422 763.029 105.039 763.029 105.8C763.029 106.561 763.699 107.178 764.526 107.178Z" fill="white"/>
<path d="M770.206 107.178C771.032 107.178 771.702 106.561 771.702 105.8C771.702 105.039 771.032 104.422 770.206 104.422C769.379 104.422 768.709 105.039 768.709 105.8C768.709 106.561 769.379 107.178 770.206 107.178Z" fill="white"/>
<path d="M886.858 124.711H828.515C828.39 124.696 828.276 124.639 828.193 124.552C828.11 124.465 828.064 124.354 828.064 124.238C828.064 124.123 828.11 124.011 828.193 123.924C828.276 123.837 828.39 123.781 828.515 123.766H886.858C886.983 123.781 887.097 123.837 887.18 123.924C887.263 124.011 887.308 124.123 887.308 124.238C887.308 124.354 887.263 124.465 887.18 124.552C887.097 124.639 886.983 124.696 886.858 124.711V124.711Z" fill="#CCCCCC"/>
<path d="M846.432 129.909H809.337C809.212 129.893 809.098 129.837 809.015 129.75C808.932 129.663 808.887 129.552 808.887 129.436C808.887 129.32 808.932 129.209 809.015 129.122C809.098 129.035 809.212 128.978 809.337 128.963H846.432C846.556 128.978 846.671 129.035 846.754 129.122C846.836 129.209 846.882 129.32 846.882 129.436C846.882 129.552 846.836 129.663 846.754 129.75C846.671 129.837 846.556 129.893 846.432 129.909V129.909Z" fill="#CCCCCC"/>
<path d="M886.858 130.003H849.763C849.638 129.988 849.524 129.932 849.441 129.845C849.358 129.758 849.312 129.646 849.312 129.531C849.312 129.415 849.358 129.303 849.441 129.216C849.524 129.129 849.638 129.073 849.763 129.058H886.858C886.982 129.073 887.097 129.129 887.179 129.216C887.262 129.303 887.308 129.415 887.308 129.531C887.308 129.646 887.262 129.758 887.179 129.845C887.097 129.932 886.982 129.988 886.858 130.003H886.858Z" fill="#CCCCCC"/>
<path d="M846.522 135.107H809.427C809.302 135.092 809.188 135.035 809.105 134.948C809.022 134.861 808.977 134.75 808.977 134.634C808.977 134.519 809.022 134.407 809.105 134.32C809.188 134.233 809.302 134.177 809.427 134.162H846.522C846.646 134.177 846.761 134.233 846.843 134.32C846.926 134.407 846.972 134.519 846.972 134.634C846.972 134.75 846.926 134.861 846.843 134.948C846.761 135.035 846.646 135.092 846.522 135.107V135.107Z" fill="#CCCCCC"/>
<path d="M846.612 140.305H809.517C809.392 140.29 809.278 140.234 809.195 140.147C809.112 140.06 809.066 139.948 809.066 139.832C809.066 139.717 809.112 139.605 809.195 139.518C809.278 139.431 809.392 139.375 809.517 139.36H846.612C846.736 139.375 846.85 139.431 846.933 139.518C847.016 139.605 847.062 139.717 847.062 139.832C847.062 139.948 847.016 140.06 846.933 140.147C846.85 140.234 846.736 140.29 846.612 140.305V140.305Z" fill="#CCCCCC"/>
<path d="M863.449 135.107H852.825C852.701 135.092 852.586 135.035 852.503 134.948C852.421 134.861 852.375 134.75 852.375 134.634C852.375 134.519 852.421 134.407 852.503 134.32C852.586 134.233 852.701 134.177 852.825 134.162H863.449C863.574 134.177 863.688 134.233 863.771 134.32C863.854 134.407 863.9 134.519 863.9 134.634C863.9 134.75 863.854 134.861 863.771 134.948C863.688 135.035 863.574 135.092 863.449 135.107V135.107Z" fill="#CCCCCC"/>
<path d="M863.449 140.21H852.825C852.701 140.195 852.586 140.139 852.503 140.052C852.421 139.965 852.375 139.853 852.375 139.738C852.375 139.622 852.421 139.51 852.503 139.423C852.586 139.337 852.701 139.28 852.825 139.265H863.449C863.574 139.28 863.688 139.337 863.771 139.423C863.854 139.51 863.9 139.622 863.9 139.738C863.9 139.853 863.854 139.965 863.771 140.052C863.688 140.139 863.574 140.195 863.449 140.21V140.21Z" fill="#CCCCCC"/>
<path d="M881.276 140.21H870.651C870.527 140.195 870.412 140.139 870.33 140.052C870.247 139.965 870.201 139.853 870.201 139.738C870.201 139.622 870.247 139.51 870.33 139.423C870.412 139.337 870.527 139.28 870.651 139.265H881.276C881.4 139.28 881.515 139.337 881.597 139.423C881.68 139.51 881.726 139.622 881.726 139.738C881.726 139.853 881.68 139.965 881.597 140.052C881.515 140.139 881.4 140.195 881.276 140.21V140.21Z" fill="#CCCCCC"/>
<path d="M819.692 124.711H809.067C808.943 124.696 808.828 124.639 808.746 124.552C808.663 124.465 808.617 124.354 808.617 124.238C808.617 124.123 808.663 124.011 808.746 123.924C808.828 123.837 808.943 123.781 809.067 123.766H819.692C819.816 123.781 819.931 123.837 820.013 123.924C820.096 124.011 820.142 124.123 820.142 124.238C820.142 124.354 820.096 124.465 820.013 124.552C819.931 124.639 819.816 124.696 819.692 124.711Z" fill="#CCCCCC"/>
<path d="M846.295 184.312H809.2C809.076 184.297 808.961 184.241 808.878 184.154C808.796 184.067 808.75 183.955 808.75 183.84C808.75 183.724 808.796 183.612 808.878 183.525C808.961 183.439 809.076 183.382 809.2 183.367H846.295C846.42 183.382 846.534 183.439 846.617 183.525C846.7 183.612 846.745 183.724 846.745 183.84C846.745 183.955 846.7 184.067 846.617 184.154C846.534 184.241 846.42 184.297 846.295 184.312H846.295Z" fill="#CCCCCC"/>
<path d="M846.117 194.709H809.022C808.898 194.694 808.784 194.637 808.701 194.55C808.618 194.464 808.572 194.352 808.572 194.236C808.572 194.121 808.618 194.009 808.701 193.922C808.784 193.835 808.898 193.779 809.022 193.764H846.117C846.242 193.779 846.356 193.835 846.439 193.922C846.522 194.009 846.568 194.121 846.568 194.236C846.568 194.352 846.522 194.464 846.439 194.55C846.356 194.637 846.242 194.694 846.117 194.709H846.117Z" fill="#CCCCCC"/>
<path d="M846.205 199.907H809.11C808.986 199.891 808.871 199.835 808.789 199.748C808.706 199.661 808.66 199.55 808.66 199.434C808.66 199.318 808.706 199.207 808.789 199.12C808.871 199.033 808.986 198.977 809.11 198.961H846.205C846.33 198.977 846.444 199.033 846.527 199.12C846.61 199.207 846.655 199.318 846.655 199.434C846.655 199.55 846.61 199.661 846.527 199.748C846.444 199.835 846.33 199.891 846.205 199.907H846.205Z" fill="#CCCCCC"/>
<path d="M862.053 194.803H851.429C851.304 194.788 851.19 194.732 851.107 194.645C851.024 194.558 850.979 194.446 850.979 194.33C850.979 194.215 851.024 194.103 851.107 194.016C851.19 193.929 851.304 193.873 851.429 193.858H862.053C862.178 193.873 862.292 193.929 862.375 194.016C862.457 194.103 862.503 194.215 862.503 194.33C862.503 194.446 862.457 194.558 862.375 194.645C862.292 194.732 862.178 194.788 862.053 194.803V194.803Z" fill="#CCCCCC"/>
<path d="M862.053 199.907H851.429C851.304 199.891 851.19 199.835 851.107 199.748C851.024 199.661 850.979 199.55 850.979 199.434C850.979 199.318 851.024 199.207 851.107 199.12C851.19 199.033 851.304 198.977 851.429 198.961H862.053C862.178 198.977 862.292 199.033 862.375 199.12C862.457 199.207 862.503 199.318 862.503 199.434C862.503 199.55 862.457 199.661 862.375 199.748C862.292 199.835 862.178 199.891 862.053 199.907V199.907Z" fill="#CCCCCC"/>
<path d="M879.881 194.803H869.257C869.132 194.788 869.018 194.732 868.935 194.645C868.852 194.558 868.807 194.446 868.807 194.33C868.807 194.215 868.852 194.103 868.935 194.016C869.018 193.929 869.132 193.873 869.257 193.858H879.881C880.006 193.873 880.12 193.929 880.203 194.016C880.286 194.103 880.331 194.215 880.331 194.33C880.331 194.446 880.286 194.558 880.203 194.645C880.12 194.732 880.006 194.788 879.881 194.803V194.803Z" fill="#CCCCCC"/>
<path d="M886.901 189.511H828.558C828.433 189.495 828.319 189.439 828.236 189.352C828.153 189.265 828.107 189.154 828.107 189.038C828.107 188.922 828.153 188.811 828.236 188.724C828.319 188.637 828.433 188.581 828.558 188.565H886.901C887.026 188.581 887.14 188.637 887.223 188.724C887.306 188.811 887.351 188.922 887.351 189.038C887.351 189.154 887.306 189.265 887.223 189.352C887.14 189.439 887.026 189.495 886.901 189.511V189.511Z" fill="#CCCCCC"/>
<path d="M819.735 189.511H809.11C808.986 189.495 808.871 189.439 808.789 189.352C808.706 189.265 808.66 189.154 808.66 189.038C808.66 188.922 808.706 188.811 808.789 188.724C808.871 188.637 808.986 188.581 809.11 188.565H819.735C819.859 188.581 819.973 188.637 820.056 188.724C820.139 188.811 820.185 188.922 820.185 189.038C820.185 189.154 820.139 189.265 820.056 189.352C819.973 189.439 819.859 189.495 819.735 189.511V189.511Z" fill="#CCCCCC"/>
<path d="M837.338 148.702L822.932 161.796L837.338 174.89L840.579 171.906L829.684 161.879L840.669 151.768L837.338 148.702Z" fill="#E6E6E6"/>
<path d="M858.585 148.702L872.991 161.796L858.585 174.89L855.344 171.906L866.238 161.879L855.254 151.768L858.585 148.702Z" fill="#E6E6E6"/>
<path d="M837.338 148.702L822.932 161.796L837.338 174.89L840.579 171.906L829.684 161.879L840.669 151.768L837.338 148.702Z" fill="#9CA0E9"/>
<path d="M858.585 148.702L872.991 161.796L858.585 174.89L855.344 171.906L866.238 161.879L855.254 151.768L858.585 148.702Z" fill="#9CA0E9"/>
<path d="M813.29 258.235C817.772 263.76 827.077 264.342 827.077 264.342C827.077 264.342 829.114 255.965 824.632 250.439C820.149 244.914 810.845 244.333 810.845 244.333C810.845 244.333 808.808 252.709 813.29 258.235Z" fill="#E6E6E6"/>
<path d="M836.123 260.312C833.165 263.958 827.025 264.342 827.025 264.342C827.025 264.342 825.681 258.814 828.639 255.168C831.597 251.522 837.737 251.138 837.737 251.138C837.737 251.138 839.081 256.666 836.123 260.312Z" fill="#E6E6E6"/>
<path d="M713.574 233.902V248.245H709.122L706.154 233.219L713.574 233.902Z" fill="#FFB9B9"/>
<path d="M678.33 233.902V248.245H673.878L670.91 233.219L678.33 233.902Z" fill="#FFB9B9"/>
<path d="M701.815 128.175C701.815 128.175 694.661 123.442 693.767 125.706C692.873 127.969 699.133 132.085 699.133 132.085L701.815 128.175Z" fill="#FFB9B9"/>
<path d="M676.441 134.246C676.441 142.428 680.269 142.683 686.504 142.683C692.739 142.683 699.021 142.428 699.021 134.246C699.021 126.063 693.967 119.43 687.731 119.43C681.496 119.43 676.441 126.063 676.441 134.246Z" fill="#2F2E41"/>
<path d="M691.756 134.143C691.756 134.143 690.861 140.316 695.109 140.728C699.357 141.139 681.248 142.374 681.248 142.374C681.248 142.374 685.943 138.464 683.484 135.377C681.024 132.291 691.756 134.143 691.756 134.143Z" fill="#FFB9B9"/>
<path d="M714.334 244.44L715.899 256.581C715.899 256.581 723.724 265.429 718.805 264.812C713.887 264.195 710.757 264.943 710.757 264.12C710.757 263.297 710.641 260.356 709.971 260.356C709.3 260.356 708.745 265 708.745 265C708.745 265 706.733 264.86 706.509 264.654C706.286 264.448 706.062 252.671 706.062 252.671C706.062 252.671 705.392 249.173 706.733 247.527C708.074 245.88 707.851 244.44 707.851 244.44L714.334 244.44Z" fill="#2F2E41"/>
<path d="M678.719 244.306L680.284 256.447C680.284 256.447 688.108 265.296 683.19 264.678C678.272 264.061 675.142 264.809 675.142 263.986C675.142 263.163 675.026 260.222 674.355 260.222C673.685 260.222 673.13 264.866 673.13 264.866C673.13 264.866 671.118 264.726 670.894 264.52C670.671 264.315 670.447 252.537 670.447 252.537C670.447 252.537 669.776 249.039 671.118 247.393C672.459 245.747 672.235 244.306 672.235 244.306H678.719Z" fill="#2F2E41"/>
<path d="M702.708 172.212C702.708 172.212 709.862 190.938 710.309 195.053C710.756 199.169 709.862 213.162 709.862 213.162C709.862 213.162 716.345 237.339 715.004 237.545C713.663 237.751 706.193 238.726 705.969 237.697C705.745 236.668 704.948 235.075 705.172 234.458C705.396 233.841 704.501 231.577 704.501 230.342C704.501 229.108 701.367 222.628 701.59 221.599C701.814 220.57 697.79 205.342 697.119 204.108C696.448 202.873 694.66 194.23 694.66 194.23C694.66 194.23 684.599 219.541 684.376 220.158C684.152 220.776 683.258 221.804 683.705 222.01C684.152 222.216 683.034 223.656 683.034 223.656C683.034 223.656 680.718 232.194 680.718 232.606C680.718 233.018 681.165 237.676 680.271 237.882C679.376 238.088 670.242 238.074 669.795 236.634C669.348 235.194 674.539 218.512 674.539 218.512C674.539 218.512 678.34 208.017 677.222 205.342C676.104 202.667 678.34 186.616 679.234 185.382C680.128 184.147 680.352 176.739 680.352 176.739L702.708 172.212Z" fill="#2F2E41"/>
<path d="M687.842 137.538C691.793 137.538 694.996 134.59 694.996 130.954C694.996 127.317 691.793 124.369 687.842 124.369C683.89 124.369 680.688 127.317 680.688 130.954C680.688 134.59 683.89 137.538 687.842 137.538Z" fill="#FFB9B9"/>
<path d="M691.754 139.287C691.754 139.287 683.705 139.493 683.258 138.876C682.811 138.259 671.633 140.316 671.633 144.432C671.633 148.547 678.116 164.598 678.116 164.598C678.116 164.598 680.575 176.122 679.905 177.356C679.234 178.591 704.72 174.681 704.05 172.623C703.379 170.566 699.578 166.039 704.497 162.129C709.415 158.219 711.427 154.103 711.427 154.103L705.614 139.905C705.614 139.905 699.802 139.082 698.46 139.905C697.119 140.728 691.754 139.287 691.754 139.287Z" fill="#9CA0E9"/>
<path d="M709.865 155.132L711.43 154.103C711.43 154.103 725.961 140.11 722.161 137.435C718.36 134.76 712.771 132.291 710.088 132.085C707.406 131.879 705.17 130.027 705.17 130.027C705.17 130.027 702.264 125.294 700.028 128.381C697.792 131.468 695.333 132.497 698.463 133.526C701.593 134.554 703.605 134.143 705.17 135.172C706.735 136.201 712.771 137.847 710.088 138.464C708.55 138.807 707.052 139.29 705.617 139.905L702.711 144.638L709.865 155.132Z" fill="#9CA0E9"/>
<path d="M684.601 189.909C684.601 189.909 690.414 197.728 686.166 197.317C681.918 196.905 679.906 191.555 679.906 191.555L684.601 189.909Z" fill="#FFB9B9"/>
<path d="M673.2 143.403L671.635 144.432C671.635 144.432 666.493 170.36 671.635 177.15C676.777 183.941 677.224 183.53 677.224 183.53C677.224 183.53 678.118 182.912 678.565 187.028C679.013 191.143 678.342 192.79 679.683 192.79C681.025 192.79 687.061 191.555 686.614 190.526C686.167 189.497 683.26 183.53 683.037 182.089C682.813 180.649 681.695 177.356 681.248 175.504C680.801 173.652 683.26 172.623 682.142 168.714C681.025 164.804 679.46 157.807 679.46 156.367C679.46 154.926 673.2 143.403 673.2 143.403Z" fill="#9CA0E9"/>
<path d="M680.912 125.089C680.912 127.305 684.215 129.102 688.29 129.102C692.364 129.102 696.114 130.289 696.114 128.073C696.114 125.856 692.364 121.076 688.29 121.076C684.215 121.076 680.912 122.873 680.912 125.089Z" fill="#2F2E41"/>
<path d="M698.953 135.634C698.953 135.634 699.254 143.094 691.2 142.682C683.147 142.271 692.289 136.306 692.289 136.306L698.953 135.634Z" fill="#2F2E41"/>
</g>
</g>
<defs>
<clipPath id="clip0">
<rect width="1058" height="304" fill="white"/>
</clipPath>
<clipPath id="clip1">
<rect width="276" height="163" fill="white" transform="translate(667 102)"/>
</clipPath>
</defs>
</svg>
