<svg width="1058" height="304" viewBox="0 0 1058 304" fill="none" xmlns="http://www.w3.org/2000/svg">
<g clip-path="url(#clip0)">
<path d="M52.6121 161.775C57.101 164.293 62.955 163.93 66.1314 161.213C69.3078 158.496 68.469 153.823 64.1148 151.937C59.7604 150.051 53.47 149.194 50.5954 152.5C47.7209 155.805 48.1233 159.258 52.6121 161.775Z" fill="#00D3AE"/>
<path d="M1157.53 0H-22.8926V405.333H1157.53V0Z" fill="#4E54C8"/>
<path d="M103.109 264.404C126.387 284.15 157.798 279.94 175.569 256.952C193.34 233.965 190.204 195.744 167.463 181.159C144.721 166.576 111.329 160.851 95.0025 188.612C78.6759 216.372 79.8309 244.659 103.109 264.404Z" fill="#595FCA"/>
<path d="M53.985 173.53C59.8055 178.678 67.396 177.935 71.5147 172.379C75.6333 166.823 74.5457 157.267 68.8998 153.409C63.2538 149.552 55.0973 147.8 51.3701 154.56C47.6429 161.32 48.1646 168.381 53.985 173.53Z" fill="#595FCA"/>
<path d="M1041.11 318.268C938.073 382.627 941.619 394.369 962.276 410.233C982.935 426.098 1009.54 414.579 1097.91 355.818C1186.29 297.057 1183.09 295.896 1173 270.945C1137.54 257.91 1144.14 253.908 1041.11 318.268Z" fill="white" fill-opacity="0.06"/>
<path d="M790.953 261.309C810.778 276.898 837.961 273.055 853.63 254.266C869.298 235.478 867.127 204.705 847.693 193.271C828.259 181.837 799.505 177.698 785.017 200.314C770.528 222.929 771.128 245.72 790.953 261.309Z" fill="#595FCA"/>
<path d="M414.386 50.7867C414.338 50.7893 414.29 50.792 414.242 50.7946C382.837 51.9394 356.638 28.4502 349.5 -4.32385C347.304 -14.4074 340.092 -22.7724 330.85 -22.4386L302.774 -21.4123C302.266 48.8086 352.007 103.906 413.874 101.654C413.922 101.651 413.971 101.649 414.019 101.646L414.386 50.7867Z" fill="#5359C9"/>
<path d="M414.385 50.7878C414.433 50.7852 414.485 50.7873 414.533 50.7847C445.938 49.6399 472.488 24.2303 480.1 -9.08486C482.443 -19.3335 489.782 -28.2298 499.019 -28.5678L527.099 -29.59C526.595 40.6352 476.029 99.3866 414.166 101.643C414.118 101.646 414.065 101.644 414.017 101.647L414.385 50.7878Z" fill="#5359C9"/>
<path opacity="0.5" d="M976.137 57.8401C976.096 57.7999 976.055 57.7597 976.014 57.7195C949.672 31.8186 946.412 -3.08363 965.718 -26.9415C971.657 -34.2812 972.215 -44.9253 964.465 -52.5449L940.912 -75.7027C886.734 -37.9302 884.882 34.0533 936.775 85.0768C936.816 85.117 936.857 85.1572 936.898 85.1974L976.137 57.8401Z" fill="#595FCA"/>
<path opacity="0.5" d="M976.138 57.8403C976.179 57.8805 976.22 57.921 976.261 57.9612C1002.6 83.8621 1043.59 92.463 1075.27 80.7731C1085.02 77.1767 1097.78 78.5342 1105.53 86.1538L1129.08 109.311C1074.9 147.084 988.915 136.342 937.021 85.3185C936.98 85.2783 936.939 85.2381 936.899 85.1976L976.138 57.8403Z" fill="#595FCA"/>
<path d="M823.46 165.77H740.443V183.997H823.46V165.77Z" fill="#565661"/>
<path opacity="0.1" d="M823.46 165.77H740.443V183.997H823.46V165.77Z" fill="black"/>
<path d="M750.377 184.597L750.96 233.257L742.975 252.37L742.357 184.597H750.377Z" fill="#BCBEC9"/>
<path d="M741.32 169.27L822.146 169.731V183.306H741.32V169.27Z" fill="#565661"/>
<path d="M815.23 184.597L822.146 185.522V251.632L815.23 231.411V184.597Z" fill="#BCBEC9"/>
<path d="M863.724 166.5H824.771V244.986H863.724V166.5Z" fill="#EFEFF0"/>
<path d="M860.608 168.68H827.889V229.01H860.608V168.68Z" fill="#565661"/>
<path opacity="0.1" d="M860.608 168.68H827.889V229.01H860.608V168.68Z" fill="black"/>
<path d="M860.608 169.917H827.889V183.306H860.608V169.917Z" fill="#565661"/>
<path d="M860.608 184.597H827.889V213.036H860.608V184.597Z" fill="#565661"/>
<path d="M860.608 214.791H827.889V243.23H860.608V214.791Z" fill="#565661"/>
<path opacity="0.1" d="M860.608 214.791H827.889V243.23H860.608V214.791Z" fill="black"/>
<path d="M829.253 250.096C830.418 250.096 831.362 248.952 831.362 247.541C831.362 246.13 830.418 244.986 829.253 244.986C828.089 244.986 827.145 246.13 827.145 247.541C827.145 248.952 828.089 250.096 829.253 250.096Z" fill="#565661"/>
<path d="M858.5 250.218C859.664 250.218 860.608 249.074 860.608 247.662C860.608 246.251 859.664 245.107 858.5 245.107C857.335 245.107 856.391 246.251 856.391 247.662C856.391 249.074 857.335 250.218 858.5 250.218Z" fill="#565661"/>
<path d="M740.151 252.371H742.974L742.198 167.181H737.91L740.151 252.371Z" fill="#EFEFF0"/>
<path d="M822.146 166.5V251.632H824.774V167.181L822.146 166.5Z" fill="#EFEFF0"/>
<path d="M742.336 182.473V185.522H822.145V183.306L742.336 182.473Z" fill="#EFEFF0"/>
<path d="M747.746 160.777H848.925L863.628 165.393V168.07L737.424 167.148V164.423L747.746 160.777Z" fill="white"/>
<path d="M737.424 164.423L863.628 165.392V168.069L737.424 167.147V164.423Z" fill="#BCBEC9"/>
<path d="M748.855 196.173L748.27 196.09C748.27 196.065 748.27 196.042 748.27 196.02C748.252 195.89 748.231 195.762 748.211 195.631C748.451 195.812 748.68 195.992 748.89 196.173H748.855Z" fill="url(#paint0_linear)"/>
<path d="M736.127 239.056C736.507 238.973 736.894 238.903 737.281 238.854C739.936 238.495 742.644 238.873 745.078 239.942C744.832 241.659 744.589 243.433 745.11 245.091C745.473 246.258 746.202 247.313 746.358 248.529C746.749 248.593 747.114 248.759 747.411 249.008C747.708 249.257 747.927 249.58 748.042 249.94C748.154 250.259 748.211 250.593 748.209 250.929C748.206 251.345 748.15 251.759 748.045 252.162C748.009 252.484 747.842 252.781 747.58 252.988C747.317 253.196 746.98 253.298 746.639 253.273C744.372 253.517 742.149 252.67 740.04 251.84L735.939 250.224C735.459 250.035 734.976 249.843 734.516 249.61C733.644 249.163 732.869 248.563 732.234 247.841C732.1 247.712 732.006 247.55 731.962 247.374C731.885 246.885 732.489 246.594 732.873 246.263C732.985 246.162 733.083 246.049 733.165 245.924C733.619 245.275 733.663 244.377 733.936 243.611C734.58 241.792 736.572 240.62 737.275 238.845C737.313 238.748 737.348 238.651 737.377 238.551" fill="#A26565"/>
<path opacity="0.1" d="M748.209 250.929C748.206 251.345 748.15 251.759 748.045 252.162C748.009 252.484 747.842 252.781 747.58 252.988C747.317 253.196 746.98 253.298 746.639 253.273C744.372 253.517 742.149 252.67 740.04 251.84L735.939 250.223C735.459 250.035 734.976 249.843 734.516 249.61C733.644 249.163 732.869 248.562 732.234 247.841C732.1 247.712 732.006 247.55 731.962 247.374C731.885 246.885 732.489 246.594 732.873 246.263C732.985 246.162 733.083 246.049 733.165 245.924C734.296 246.155 735.699 246.83 736.563 247.091C737.429 247.314 738.26 247.644 739.035 248.071C740.113 248.727 740.889 249.737 741.803 250.571C742.717 251.404 743.897 252.162 745.171 252.059C745.845 251.963 746.494 251.75 747.087 251.432L748.209 250.929Z" fill="black"/>
<path d="M743.408 211.461C743.485 211.713 743.478 211.981 743.389 212.23C743.3 212.478 743.133 212.694 742.91 212.85C742.527 213.075 742.032 213.044 741.651 213.289C741.179 213.603 741.112 214.225 741.03 214.764C740.737 216.616 739.768 218.296 738.939 219.999C738.11 221.701 737.41 223.559 737.714 225.409C737.922 226.664 738.573 228.003 737.963 229.133C737.814 229.411 737.591 229.658 737.422 229.927C736.587 231.249 737.061 232.924 737.029 234.463C737.041 234.633 737.002 234.804 736.915 234.954C736.787 235.096 736.629 235.211 736.452 235.293C736.155 235.5 735.91 235.769 735.737 236.078C735.565 236.387 735.467 236.729 735.453 237.079C735.429 237.778 735.517 238.477 735.717 239.151C735.749 239.423 735.876 239.677 736.077 239.873C736.31 240.019 736.586 240.093 736.865 240.084C738.705 240.225 740.51 240.641 742.213 241.317C743.323 241.756 744.401 242.306 745.582 242.517C745.696 242.55 745.816 242.561 745.935 242.549C746.054 242.538 746.169 242.503 746.273 242.447C746.421 242.32 746.524 242.152 746.566 241.967C747.02 240.55 747.48 239.089 747.324 237.618C747.257 236.984 747.078 236.365 747.032 235.732C746.827 233.232 748.61 230.977 749.176 228.511C749.43 227.4 749.43 226.25 749.612 225.128C750.104 222.054 751.891 219.296 752.579 216.255C752.675 215.688 752.824 215.13 753.024 214.589C753.537 213.411 754.723 212.456 754.749 211.181C754.766 210.9 754.688 210.622 754.527 210.387C754.251 210.099 753.884 209.904 753.481 209.831C751.89 209.416 750.27 209.106 748.634 208.904C747.884 208.764 747.118 208.713 746.355 208.754C745.364 208.864 744.411 209.183 743.567 209.687C742.436 210.348 743.162 210.506 743.408 211.461Z" fill="#454B69"/>
<path opacity="0.05" d="M743.408 211.461C743.485 211.713 743.478 211.981 743.389 212.23C743.3 212.478 743.133 212.694 742.91 212.85C742.527 213.075 742.032 213.044 741.651 213.289C741.179 213.603 741.112 214.225 741.03 214.764C740.737 216.616 739.768 218.296 738.939 219.999C738.11 221.701 737.41 223.559 737.714 225.409C737.922 226.664 738.573 228.003 737.963 229.133C737.814 229.411 737.591 229.658 737.422 229.927C736.587 231.249 737.061 232.924 737.029 234.463C737.041 234.633 737.002 234.804 736.915 234.954C736.787 235.096 736.629 235.211 736.452 235.293C736.155 235.5 735.91 235.769 735.737 236.078C735.565 236.387 735.467 236.729 735.453 237.079C735.429 237.778 735.517 238.477 735.717 239.151C735.749 239.423 735.876 239.677 736.077 239.873C736.31 240.019 736.586 240.093 736.865 240.084C738.705 240.225 740.51 240.641 742.213 241.317C743.323 241.756 744.401 242.306 745.582 242.517C745.696 242.55 745.816 242.561 745.935 242.549C746.054 242.538 746.169 242.503 746.273 242.447C746.421 242.32 746.524 242.152 746.566 241.967C747.02 240.55 747.48 239.089 747.324 237.618C747.257 236.984 747.078 236.365 747.032 235.732C746.827 233.232 748.61 230.977 749.176 228.511C749.43 227.4 749.43 226.25 749.612 225.128C750.104 222.054 751.891 219.296 752.579 216.255C752.675 215.688 752.824 215.13 753.024 214.589C753.537 213.411 754.723 212.456 754.749 211.181C754.766 210.9 754.688 210.622 754.527 210.387C754.251 210.099 753.884 209.904 753.481 209.831C751.89 209.416 750.27 209.106 748.634 208.904C747.884 208.764 747.118 208.713 746.355 208.754C745.364 208.864 744.411 209.183 743.567 209.687C742.436 210.348 743.162 210.506 743.408 211.461Z" fill="black"/>
<path d="M737.675 253.317H735.176L733.542 221.479L733.428 219.668L735.551 218.96L735.695 220.885L737.675 253.317Z" fill="#565661"/>
<path opacity="0.1" d="M735.695 220.885L733.542 221.479L733.428 219.668L735.551 218.96L735.695 220.885Z" fill="black"/>
<path d="M769.025 260.052L764.904 260.524L745.918 219.668L740.798 219.313L731.806 221.801L730.057 270.445H725.936L727.559 220.024L717.691 220.262L700.082 261.827H696.336L714.856 213.25L715.571 211.378L743.171 210.481L750.051 214.139L750.139 214.35L769.025 260.052Z" fill="#565661"/>
<path opacity="0.1" d="M750.138 214.35C744.207 216.044 738.05 217.893 738.05 217.893C738.05 217.893 732.435 219.751 730.057 217.893C729.757 217.672 729.422 217.496 729.064 217.374C729.373 217.583 729.706 217.757 730.057 217.893L714.855 213.247L715.567 211.378L743.17 210.481L750.05 214.139L750.138 214.35Z" fill="black"/>
<path d="M722.064 206.287L733.302 203.918C733.302 203.918 760.155 208.656 762.153 210.551C762.153 210.551 740.672 214.694 738.299 216.105C735.927 217.516 721.812 219.077 722.064 206.287Z" fill="white"/>
<path d="M717.231 179.656C716.352 182.297 713.954 184.677 711.033 184.791C710.821 184.815 710.606 184.778 710.415 184.686C710.049 184.469 710.04 183.961 710.19 183.575C710.339 183.189 710.6 182.841 710.641 182.436C710.65 182.353 710.644 182.27 710.623 182.189C710.547 181.858 710.263 181.564 709.929 181.633C710.156 181.461 710.308 181.214 710.354 180.942C710.4 180.669 710.337 180.39 710.178 180.159C710.046 180.017 709.926 179.864 709.821 179.703C709.578 179.231 709.955 178.701 710.114 178.195C710.439 177.084 709.613 175.973 709.545 174.815C709.487 173.779 710.04 172.805 710.178 171.777C710.398 170.111 709.525 168.514 709.422 166.85C709.352 165.689 709.654 164.539 709.991 163.42C710.284 162.42 710.614 161.409 710.635 160.365C710.635 159.607 710.497 158.857 710.459 158.102C710.398 157.411 710.531 156.718 710.843 156.091C711.046 155.723 711.391 155.443 711.807 155.311C712.767 155.005 713.397 155.48 713.538 156.344C713.772 157.813 713.637 159.313 713.945 160.787C714.229 162.166 714.66 163.515 715.231 164.812C715.749 165.984 716.379 167.117 716.777 168.33C717.077 169.331 717.291 170.352 717.419 171.385C717.811 174.16 718.119 177.015 717.231 179.656Z" fill="#9CA0E9"/>
<path d="M783.942 246.877C783.571 247.372 783.095 247.787 782.543 248.096C781.991 248.404 781.377 248.598 780.74 248.665C779.469 248.815 778.148 248.513 776.915 248.843C776.724 248.873 776.544 248.947 776.391 249.059C776.237 249.171 776.116 249.317 776.036 249.485C776.006 249.71 775.987 249.937 775.981 250.165C775.837 250.907 774.809 251.073 774.01 251.068L770.712 251.048C770.026 251.048 769.268 251.012 768.776 250.562C768.542 250.316 768.41 249.999 768.404 249.668C768.399 249.337 768.52 249.015 768.746 248.762C768.849 248.648 768.974 248.553 769.115 248.485C768.909 248.42 768.726 248.303 768.587 248.145C768.447 247.988 768.356 247.797 768.324 247.593C768.264 247.185 768.285 246.77 768.386 246.369C768.386 245.208 768.679 243.264 769.54 242.355C770.597 241.225 772.431 239.764 774.027 239.461C774.566 239.363 775.122 239.387 775.65 239.529C776.178 239.671 776.663 239.929 777.067 240.281C777.823 240.947 778.374 241.992 779.411 242.108C779.976 242.175 780.521 241.922 781.08 241.83C781.716 241.753 782.362 241.864 782.928 242.148C783.495 242.431 783.956 242.875 784.246 243.416C784.388 243.691 784.487 243.984 784.539 244.286C784.694 245.19 784.481 246.116 783.942 246.877Z" fill="#A26565"/>
<path opacity="0.1" d="M783.942 246.877C783.572 247.372 783.095 247.788 782.543 248.096C781.991 248.404 781.377 248.598 780.741 248.666C779.47 248.816 778.149 248.513 776.915 248.843C776.724 248.873 776.544 248.947 776.391 249.059C776.238 249.171 776.116 249.317 776.037 249.485C776.006 249.711 775.988 249.938 775.981 250.165C775.838 250.907 774.809 251.073 774.01 251.068L770.712 251.048C770.026 251.048 769.268 251.012 768.776 250.562C768.542 250.317 768.41 249.999 768.404 249.668C768.399 249.337 768.521 249.015 768.746 248.763C770.65 248.688 772.522 248.763 774.42 248.391C775.19 248.243 775.949 248.049 776.728 247.946C778.415 247.718 780.211 247.913 781.76 247.235C783.052 246.68 783.977 245.549 784.525 244.289C784.683 245.19 784.475 246.115 783.942 246.877V246.877Z" fill="black"/>
<path d="M775.24 242.486C774.068 243.347 772.694 244.019 771.218 244.091C769.742 244.164 768.175 243.536 767.452 242.319C766.394 240.534 767.331 238.051 766.037 236.412C765.633 235.898 765.05 235.535 764.622 235.037C764.194 234.54 763.948 233.793 764.329 233.266C763.869 233.432 763.383 233.01 763.248 232.56C763.114 232.11 763.199 231.627 763.117 231.172C762.903 229.963 761.652 229.189 761.052 228.117C760.451 227.045 760.533 225.653 760.466 224.384C760.316 221.292 759.102 218.331 757.01 215.955C756.611 215.505 756.102 215.047 755.481 215.069C755.589 214.053 754.874 213.081 753.949 212.57C753.023 212.059 751.922 211.886 750.85 211.786C740.033 210.775 728.762 214.589 718.435 211.381C715.561 210.489 712.791 208.998 711.033 206.66C710.349 205.77 709.859 204.759 709.593 203.686C709.327 202.614 709.29 201.502 709.484 200.416V200.377C709.891 198.406 710.989 197.92 712.808 197.02C714.908 195.967 717.103 195.094 719.366 194.412C723.76 193.109 728.49 192.64 733.024 193.595C735.142 194.045 737.183 194.79 739.304 195.226C740.139 195.398 740.979 195.52 741.826 195.623C743.141 195.778 744.462 195.881 745.786 196.025C750.019 196.488 754.188 197.377 758.222 198.678C759.725 199.161 761.227 199.714 762.519 200.588C763.541 201.292 764.405 202.181 765.06 203.205C765.716 204.228 766.151 205.364 766.339 206.548C766.462 207.365 766.464 208.215 766.652 209.006C766.83 209.672 767.065 210.322 767.355 210.95C769.858 216.818 771.903 222.851 773.474 229.003C773.563 229.459 773.728 229.9 773.963 230.308C774.338 230.883 774.982 231.269 775.36 231.844C776.239 233.199 775.392 235.09 776.171 236.501C776.441 236.99 776.889 237.376 777.158 237.865C778.037 239.467 776.739 241.384 775.24 242.486Z" fill="#454B69"/>
<path opacity="0.1" d="M760.274 210.576C760.69 210.263 761.049 209.888 761.337 209.465C761.626 209.039 761.74 208.529 761.659 208.029C761.773 208.661 761.73 209.31 761.532 209.923C761.334 210.537 760.987 211.098 760.52 211.561C759.785 212.275 758.405 212.975 757.33 212.731C757.482 211.914 759.591 211.125 760.274 210.576Z" fill="black"/>
<path opacity="0.1" d="M741.974 196.734C741.885 197.031 741.72 197.303 741.493 197.526C741.266 197.748 740.984 197.913 740.673 198.006C740.049 198.187 739.395 198.259 738.743 198.219H738.157C730.472 198.058 722.704 196.442 715.197 197.983C714.292 198.16 713.405 198.408 712.543 198.725C711.446 199.135 710.418 199.697 709.494 200.391V200.352C709.901 198.381 711 197.895 712.819 196.995C714.916 195.951 717.108 195.087 719.368 194.412C723.761 193.109 728.492 192.64 733.026 193.595C735.143 194.045 737.185 194.79 739.305 195.226C740.14 195.398 740.981 195.52 741.827 195.623C741.991 195.971 742.042 196.358 741.974 196.734V196.734Z" fill="black"/>
<path d="M741.972 196.337C741.884 196.635 741.719 196.908 741.492 197.13C741.265 197.353 740.983 197.518 740.672 197.611C740.047 197.793 739.393 197.864 738.741 197.822H738.156C730.47 197.661 722.702 196.045 715.195 197.586C714.291 197.764 713.403 198.011 712.541 198.325C711.392 198.76 710.32 199.359 709.363 200.103C709.139 199.518 708.915 198.932 708.693 198.345C708.423 197.645 709.279 197.489 709.443 196.862C709.551 196.437 709.366 195.953 709.273 195.501C709.249 195.39 709.233 195.278 709.226 195.165C709.173 194.162 709.551 193.584 710.418 193.043C712.99 191.432 716.127 190.327 719.061 189.496C720.622 189.029 722.233 188.732 723.865 188.613C726.173 188.485 728.478 188.891 730.725 189.405C733.487 190.052 736.219 190.907 738.668 192.276C739.869 192.94 741.041 193.773 741.688 194.956C741.946 195.372 742.046 195.859 741.972 196.337Z" fill="#A26565"/>
<path opacity="0.1" d="M717.232 179.656C716.353 182.297 713.954 184.677 711.034 184.791C710.822 184.815 710.606 184.778 710.416 184.686C710.05 184.469 710.041 183.961 710.19 183.575C710.34 183.189 710.601 182.842 710.642 182.436C710.65 182.353 710.644 182.27 710.624 182.189C712.173 180.117 713.676 178.023 714.271 175.571C714.391 175.149 714.428 174.709 714.379 174.274C714.3 173.774 714.033 173.321 713.887 172.838C713.629 171.983 713.749 171.077 713.822 170.191C714.127 166.29 713.44 162.377 711.819 158.78C711.424 157.913 710.972 157.035 710.835 156.111C711.038 155.742 711.383 155.462 711.798 155.33C712.759 155.025 713.389 155.5 713.53 156.363C713.764 157.832 713.629 159.332 713.937 160.807C714.221 162.186 714.652 163.534 715.222 164.831C715.741 166.003 716.371 167.136 716.769 168.35C717.069 169.35 717.283 170.372 717.41 171.405C717.812 174.16 718.119 177.015 717.232 179.656Z" fill="black"/>
<path opacity="0.1" d="M741.973 196.337C741.885 196.635 741.72 196.908 741.493 197.13C741.266 197.353 740.984 197.518 740.672 197.611C740.048 197.793 739.394 197.864 738.742 197.822H738.156C735.654 196.247 732.647 195.558 729.662 195.878C728.707 195.987 727.752 196.198 726.798 196.114C724.867 195.948 723.303 194.631 721.584 193.79C719.627 192.874 717.427 192.533 715.265 192.811C713.103 193.089 711.078 193.974 709.449 195.351L709.282 195.489C709.258 195.379 709.242 195.266 709.235 195.153C709.183 194.151 709.56 193.573 710.427 193.032C712.999 191.421 716.136 190.315 719.071 189.485C720.631 189.017 722.243 188.721 723.874 188.602C726.182 188.474 728.488 188.88 730.734 189.393C733.496 190.04 736.229 190.896 738.678 192.265C739.87 192.94 741.041 193.773 741.689 194.956C741.947 195.372 742.047 195.859 741.973 196.337Z" fill="black"/>
<path d="M748.542 165.914L748.501 166.014C747.845 167.628 746.638 168.992 745.865 170.564C744.89 172.555 744.649 174.788 744.433 176.976C744.245 178.851 744.061 180.737 744.21 182.617C744.585 187.249 746.972 191.643 747.611 196.187C747.768 197.236 747.808 198.298 747.731 199.355C747.678 200.025 747.549 200.744 747.08 201.238C746.612 201.733 745.701 201.927 745.197 201.452C745.423 201.044 745.651 200.638 745.88 200.23C744.541 199.244 742.526 199.952 740.962 199.336C740.273 199.058 739.723 198.558 739.146 198.111C737.829 197.096 736.311 196.34 734.682 195.889C733.053 195.438 731.345 195.3 729.659 195.484C728.704 195.595 727.749 195.806 726.794 195.723C724.864 195.553 723.3 194.24 721.581 193.398C719.624 192.483 717.424 192.142 715.262 192.419C713.1 192.697 711.075 193.58 709.446 194.956C709.036 195.317 708.485 195.739 707.981 195.512C707.787 195.399 707.629 195.236 707.527 195.042C705.609 191.935 707.021 187.927 709.071 184.9C711.121 181.873 713.836 179.081 714.68 175.574C714.802 175.152 714.838 174.712 714.788 174.277C714.709 173.777 714.443 173.324 714.296 172.841C714.038 171.986 714.158 171.08 714.232 170.194C714.539 166.293 713.854 162.378 712.234 158.78C711.765 157.744 711.209 156.694 711.209 155.569C711.209 153.797 712.548 152.328 713.655 150.903C714.929 149.265 715.998 147.451 717.612 146.104C719.141 144.824 721.355 144.041 723.247 144.691C726.462 143.951 729.772 143.645 733.077 143.783C734.219 143.833 735.4 143.946 736.401 144.471C737.473 145.027 738.244 146.015 739.298 146.607C740.068 147.043 740.956 147.249 741.794 147.554C744.107 148.411 746.016 150.03 747.171 152.114C748.343 154.267 748.636 156.741 748.893 159.152C749.139 161.421 749.374 163.779 748.542 165.914Z" fill="#9CA0E9"/>
<path opacity="0.1" d="M744.21 182.617C744.585 187.249 746.972 191.643 747.611 196.186C746.334 195.162 744.556 194.131 744.319 192.94C744.055 191.651 743.212 189.963 743.071 188.66C742.93 187.358 743.894 185.766 742.883 184.872C742.391 184.436 743.701 184.558 743.22 184.111C742.14 183.114 741.873 181.578 741.806 180.153C741.691 177.632 742.028 175.082 741.539 172.602C741.246 171.072 740.634 169.614 740.145 168.128C739.577 166.398 739.167 164.626 738.757 162.851C738.353 161.273 738.059 159.672 737.878 158.058C737.752 156.669 737.81 155.197 738.464 153.931C739.117 152.664 740.438 151.637 741.92 151.656C746.876 151.717 746.02 158.088 747.11 161.032C747.546 162.204 748.135 163.337 748.372 164.559C748.459 165.038 748.506 165.523 748.513 166.009C747.857 167.622 746.65 168.986 745.877 170.558C744.902 172.549 744.661 174.782 744.445 176.971C744.245 178.851 744.061 180.737 744.21 182.617Z" fill="black"/>
<path d="M747.432 160.96C747.868 162.132 748.457 163.265 748.694 164.487C749.09 166.534 748.477 168.708 749.142 170.691C749.315 171.115 749.46 171.548 749.576 171.988C749.69 172.619 749.558 173.263 749.558 173.905C749.558 174.938 749.901 175.938 750.206 176.929C751.236 180.298 751.917 183.755 752.241 187.249C752.29 188.188 752.446 189.12 752.707 190.027C752.83 190.334 752.935 190.647 753.023 190.965C753.102 191.39 753.121 191.822 753.079 192.251C753 193.612 752.839 194.978 753 196.334C753.161 197.689 753.682 199.064 754.757 199.972C753.796 200.169 752.78 200.366 751.843 200.075C750.525 199.666 749.734 198.408 749.063 197.264C748.214 195.803 744.986 194.487 744.652 192.845C744.391 191.56 743.548 189.871 743.407 188.566C743.267 187.26 744.227 185.675 743.217 184.78C742.728 184.344 744.037 184.464 743.554 184.019C742.476 183.022 742.209 181.486 742.142 180.059C742.028 177.54 742.362 174.99 741.875 172.51C741.583 170.98 740.97 169.522 740.481 168.033C739.913 166.306 739.503 164.534 739.093 162.757C738.688 161.179 738.395 159.578 738.214 157.963C738.088 156.575 738.144 155.1 738.8 153.833C739.456 152.567 740.777 151.542 742.256 151.559C747.192 151.642 746.342 158.016 747.432 160.96Z" fill="#9CA0E9"/>
<path opacity="0.1" d="M733.31 162.046C733.772 162.559 734.367 163.123 735.067 163.023C735.014 163.103 734.93 163.16 734.833 163.182C734.736 163.204 734.634 163.189 734.549 163.14C734.381 163.034 734.246 162.887 734.159 162.715L733.157 161.113C733.026 160.904 732.118 159.691 731.895 160.39C731.807 160.688 733.084 161.796 733.31 162.046Z" fill="black"/>
<path opacity="0.1" d="M732.77 166.042C732.741 165.518 732.509 165.023 732.117 164.653C731.765 164.35 731.354 164.116 730.907 163.962C729.809 163.534 728.509 163.19 727.316 163.245C727.75 163.845 729.141 164.203 729.838 164.542C730.826 165.025 731.804 165.525 732.77 166.042Z" fill="black"/>
<path opacity="0.1" d="M735.889 177.418C735.687 178.84 734.459 179.917 733.218 180.75C731.976 181.584 730.581 182.3 729.77 183.505C729.208 184.339 728.956 185.305 728.478 186.174C727.951 187.133 727.163 187.938 726.534 188.838C725.904 189.738 725.412 190.812 725.605 191.879C725.608 191.928 725.621 191.976 725.644 192.02C725.668 192.064 725.7 192.103 725.74 192.134C725.8 192.159 725.866 192.168 725.931 192.161C725.996 192.154 726.058 192.132 726.112 192.096C727.389 191.462 727.893 190.015 728.429 188.763C728.991 187.499 729.625 186.264 730.327 185.064C730.643 184.508 730.992 183.903 731.58 183.594C731.983 183.435 732.396 183.299 732.816 183.186C733.412 182.927 733.935 182.538 734.342 182.05C735.941 180.242 736.776 177.935 736.685 175.576C736.668 175.079 736.639 172.685 735.851 173.424C735.063 174.163 736.024 176.451 735.889 177.418Z" fill="black"/>
<path d="M737.82 122.881C740.339 123.922 742.506 126.214 742.427 128.81C742.36 131.538 739.952 134.107 740.781 136.72C741.262 138.236 742.709 139.253 743.854 140.405C748.215 144.782 748.206 152.422 743.83 156.791C742.155 158.457 740.002 159.643 738.23 161.235C731.983 166.817 731.716 176.473 735.061 183.969C732.498 184.495 729.886 184.774 727.264 184.802C726.037 184.802 724.534 184.605 724.089 183.519C723.679 182.517 724.382 181.161 723.573 180.42C723.193 180.073 722.622 180.026 722.109 179.945C718.811 179.44 716.105 176.943 714.868 174.002C713.632 171.061 713.697 167.75 714.406 164.656C714.909 162.421 715.697 159.96 714.529 157.96C713.064 155.444 708.852 154.383 708.917 151.506C708.969 149.148 711.901 148.001 713.565 146.249C716.635 143.021 715.173 138.014 715.167 133.665C715.167 129.838 716.579 125.889 719.584 123.339C724.054 119.515 732.662 120.756 737.82 122.881Z" fill="#A26565"/>
<g opacity="0.1">
<path opacity="0.1" d="M715.007 155.108C713.721 152.909 710.344 151.82 709.559 149.657C709.166 150.162 708.946 150.768 708.927 151.395C708.862 154.273 713.068 155.333 714.538 157.852C715.021 158.744 715.225 159.748 715.124 160.746C715.587 158.813 715.994 156.797 715.007 155.108Z" fill="black"/>
<path opacity="0.1" d="M741.116 133.16C741.643 131.702 742.408 130.23 742.446 128.716C742.451 128.552 742.446 128.388 742.431 128.225C741.842 129.897 740.94 131.518 741.116 133.16Z" fill="black"/>
<path opacity="0.1" d="M715.511 140.928C716.518 137.909 715.648 134.165 715.645 130.816C715.645 130.41 715.663 130.002 715.695 129.597C715.348 130.891 715.173 132.221 715.174 133.557C715.18 135.948 715.622 138.542 715.511 140.928Z" fill="black"/>
<path opacity="0.1" d="M744.318 153.95C742.642 155.617 740.49 156.803 738.718 158.394C735.554 161.218 733.929 165.087 733.521 169.189C734.277 166.134 735.803 163.321 738.249 161.135C740.006 159.552 742.174 158.372 743.849 156.692C745.842 154.632 746.999 151.969 747.115 149.176C746.609 150.961 745.649 152.6 744.318 153.95V153.95Z" fill="black"/>
<path opacity="0.1" d="M727.752 181.953C726.524 181.953 725.022 181.753 724.577 180.668C724.167 179.668 724.869 178.312 724.061 177.568C723.68 177.221 723.106 177.174 722.597 177.093C719.301 176.591 716.595 174.091 715.359 171.153C714.448 168.981 714.252 166.612 714.48 164.273C714.457 164.365 714.436 164.457 714.416 164.551C713.719 167.645 713.646 170.958 714.879 173.899C716.112 176.841 718.821 179.337 722.116 179.84C722.638 179.92 723.212 179.97 723.581 180.315C724.398 181.059 723.686 182.414 724.096 183.414C724.541 184.5 726.044 184.714 727.271 184.7C729.893 184.671 732.505 184.392 735.068 183.867C734.707 183.057 734.391 182.229 734.122 181.387C732.019 181.741 729.888 181.931 727.752 181.953V181.953Z" fill="black"/>
</g>
<path opacity="0.1" d="M737.344 169.842C738.068 170.358 738.853 168.389 738.404 167.897C738.284 168.025 737.233 169.769 737.344 169.842Z" fill="black"/>
<path opacity="0.1" d="M740.43 205.485C741.282 205.207 742.187 204.929 742.744 204.263C743.203 203.727 743.581 201.599 742.609 202.618C741.783 203.493 741.393 204.646 740.43 205.485Z" fill="black"/>
<path opacity="0.1" d="M749.107 203.255C749.005 203.91 748.814 204.591 748.325 205.063C748.234 205.152 748.032 205.207 748.006 205.088C748.552 204.812 749.06 204.472 749.517 204.077C750.507 203.147 750.642 200.855 749.134 200.247C749.119 201.252 749.268 202.233 749.107 203.255Z" fill="black"/>
<path d="M759.526 199.125C759.526 199.125 751.213 196.028 748.208 196.347C745.203 196.667 751.612 201.158 751.612 201.158L755.443 203.607C755.443 203.607 757.786 202.774 757.941 202.71C758.096 202.646 759.526 199.125 759.526 199.125Z" fill="#454B69"/>
<path d="M702.332 165.903C702.332 165.903 708.577 162.471 716.819 166.737C725.061 171.002 726.435 196.106 726.435 196.106C726.435 196.106 723.063 221.682 736.062 215.991C736.062 215.991 759.787 209.006 762.163 210.545C762.163 210.545 764.412 210.545 759.916 211.492C755.42 212.439 738.051 217.658 738.051 217.658C738.051 217.658 732.436 219.518 730.058 217.658C727.68 215.797 720.94 217.896 720.064 205.104C719.485 197.043 718.442 189.018 716.942 181.064L714.625 174.552L702.332 165.903Z" fill="#565661"/>
<path d="M701.583 205.457C701.583 205.457 704.33 179.523 699.825 170.166C695.906 162.012 711.061 165.826 715.015 166.936C715.627 167.11 716.161 167.471 716.532 167.964C718.875 171.088 727.282 183.611 724.804 200.366C724.804 200.366 723.805 215.288 730.049 217.655L710.809 211.778C709.248 211.3 707.663 210.903 706.064 210.559C704.025 210.12 700.704 208.873 701.583 205.457Z" fill="white"/>
<path d="M838.428 253.873H840.926L842.563 222.035L842.675 220.224L840.551 219.516L840.411 221.44L838.428 253.873Z" fill="#565661"/>
<path opacity="0.1" d="M840.41 221.44L842.563 222.035L842.674 220.224L840.551 219.516L840.41 221.44Z" fill="black"/>
<path d="M817.568 241.578C817.507 242.014 817.389 242.441 817.217 242.85C817.039 243.384 816.658 243.835 816.148 244.116C815.805 244.251 815.438 244.319 815.067 244.319C813.687 244.397 812.229 244.377 811.042 243.711C810.537 243.402 810.074 243.036 809.663 242.619C806.997 240.108 804.574 237.376 802.422 234.454C802.062 233.963 801.69 233.382 801.851 232.788C804.638 232.055 807.285 230.907 809.692 229.386C810.024 229.144 810.396 228.957 810.793 228.83C811.473 228.693 812.173 228.668 812.861 228.758C813.526 228.861 813.555 228.88 813.81 229.591C814.232 230.794 814.162 232.091 814.636 233.293C814.937 233.958 815.304 234.594 815.732 235.193C816.956 237.134 817.896 239.426 817.568 241.578Z" fill="#A26565"/>
<path opacity="0.1" d="M817.568 241.578C817.507 242.014 817.389 242.441 817.217 242.85C817.039 243.383 816.658 243.835 816.148 244.116C815.805 244.25 815.438 244.319 815.067 244.319C813.687 244.397 812.229 244.377 811.042 243.711C810.537 243.402 810.074 243.035 809.663 242.619C806.997 240.108 804.574 237.375 802.422 234.454C802.062 233.963 801.69 233.382 801.851 232.788C802.76 232.549 803.656 232.265 804.534 231.938L804.578 231.969C805.477 232.577 806.13 233.449 806.766 234.304L808.816 237.04C809.182 237.577 809.613 238.071 810.102 238.512C810.708 238.973 811.377 239.354 812.091 239.645C813.055 240.086 814.018 240.528 815.02 240.884C815.667 241.131 816.763 241.228 817.568 241.578Z" fill="black"/>
<path d="M819.459 211.92C819.257 212.381 819.012 212.824 818.727 213.244C816.004 217.579 813.904 222.239 812.482 227.1C812.078 227.014 811.85 227.536 811.852 227.933C811.855 228.33 811.852 228.83 811.466 228.975C811.352 229.016 811.223 229.016 811.111 229.064C810.865 229.169 810.795 229.466 810.76 229.722L810.414 232.127C810.294 232.96 810.189 233.863 810.619 234.599C810.916 235.036 811.302 235.414 811.753 235.709L817.47 239.986C817.705 240.161 817.995 240.347 818.276 240.25C818.917 240.028 818.349 238.939 818.862 238.498C819.201 238.195 819.74 238.423 820.212 238.387C820.827 238.342 821.293 237.806 821.448 237.243C821.557 236.668 821.568 236.081 821.48 235.504C821.441 235.24 821.474 234.972 821.574 234.724C821.749 234.46 821.989 234.242 822.274 234.088C823.266 233.401 824.065 232.494 824.602 231.446C825.139 230.398 825.396 229.242 825.352 228.078C825.306 227.723 825.32 227.364 825.393 227.014C825.512 226.693 825.692 226.396 825.923 226.136C828 223.473 829.731 220.582 831.45 217.696C832.44 216.03 833.448 214.339 833.794 212.461C833.824 212.391 833.836 212.316 833.83 212.241C833.824 212.165 833.799 212.093 833.758 212.028C833.717 211.963 833.661 211.909 833.594 211.868C833.527 211.828 833.451 211.802 833.372 211.795C832.514 211.541 831.639 211.342 830.753 211.2C828.062 210.684 825.464 209.887 822.845 209.12C820.226 208.354 820.247 209.914 819.459 211.92Z" fill="#454B69"/>
<path d="M807.078 260.607L811.202 261.079L830.185 220.223L835.305 219.868L844.3 222.356L846.045 271H850.167L848.544 220.579L858.412 220.818L876.021 262.382H879.767L861.247 213.805L860.535 211.933L832.932 211.036L826.052 214.694L825.964 214.905L807.078 260.607Z" fill="#565661"/>
<path opacity="0.1" d="M825.965 214.905C831.896 216.599 838.053 218.449 838.053 218.449C838.053 218.449 843.668 220.307 846.046 218.449C846.346 218.227 846.681 218.051 847.039 217.929C846.73 218.138 846.397 218.313 846.046 218.449L861.248 213.802L860.545 211.933L832.942 211.036L826.062 214.694L825.965 214.905Z" fill="black"/>
<path d="M854.038 206.843L842.8 204.474C842.8 204.474 815.947 209.212 813.949 211.106C813.949 211.106 835.43 215.249 837.803 216.66C840.175 218.071 854.29 219.632 854.038 206.843Z" fill="white"/>
<path d="M812.336 244.913C811.659 246.135 809.993 246.479 808.528 246.499C806.495 246.523 804.475 246.181 802.576 245.491C801.493 245.096 800.453 244.588 799.334 244.299C797.667 243.866 795.819 243.902 794.355 243.033C793.578 242.542 792.936 241.882 792.483 241.108C792.398 240.972 792.316 240.83 792.24 240.686C791.54 239.395 791.215 237.892 791.604 236.498C791.994 235.104 793.409 233.568 795.049 233.59C796.997 233.618 799.319 234.493 801.2 234.945C803.543 235.501 805.886 236.142 807.957 237.317C809.691 238.306 811.223 239.725 812.04 241.458C812.197 241.792 812.326 242.138 812.427 242.491C812.681 243.291 812.74 244.183 812.336 244.913Z" fill="#A26565"/>
<path opacity="0.1" d="M812.336 244.913C811.659 246.135 809.993 246.479 808.528 246.499C806.495 246.523 804.475 246.181 802.577 245.491C801.493 245.096 800.453 244.588 799.334 244.299C797.668 243.866 795.819 243.902 794.355 243.033C793.578 242.542 792.937 241.882 792.483 241.108C792.398 240.972 792.316 240.83 792.24 240.686C792.533 240.708 792.803 240.736 792.949 240.75C794.747 240.914 796.464 241.536 798.18 242.005C800.563 242.658 803.023 243.022 805.503 243.088C807.26 243.136 809.094 243.013 810.628 242.2C811.087 241.925 811.562 241.678 812.052 241.458C812.209 241.792 812.338 242.138 812.439 242.491C812.682 243.291 812.74 244.183 812.336 244.913Z" fill="black"/>
<path d="M824.922 192.107C821.114 191.515 817.236 191.371 813.376 191.226L808.654 191.049C808.319 191.012 807.978 191.051 807.661 191.163C807.388 191.329 807.129 191.515 806.885 191.718C806.411 192.023 805.804 192.057 805.233 192.087C801.182 192.299 797.152 192.795 793.178 193.57C791.127 193.968 788.998 194.487 787.457 195.828C785.829 197.247 785.114 199.411 785.058 201.505C785.003 203.599 785.583 205.657 786.195 207.668C786.974 210.088 787.405 212.598 787.475 215.127C787.447 215.829 787.476 216.532 787.56 217.23C787.696 217.896 787.903 218.547 788.178 219.174L790.334 224.631C790.524 225.109 790.711 225.584 790.919 226.05C791.127 226.517 791.326 226.884 791.505 227.322C791.769 227.922 791.977 228.544 792.185 229.164L793.62 233.438L793.807 233.993C794.326 235.532 794.856 237.098 795.834 238.42C796.812 239.742 798.327 240.809 800.028 240.889C800.578 240.87 801.127 240.884 801.675 240.931C802.141 241.039 802.594 241.194 803.025 241.395C804.303 241.898 805.674 242.152 807.058 242.142C808.332 242.142 809.747 241.806 810.438 240.789C810.819 240.234 810.919 239.551 811.024 238.895C811.208 237.579 811.387 236.204 810.916 234.954C810.623 234.207 810.131 233.566 809.791 232.83C809.316 231.827 809.161 230.719 808.854 229.661C808.188 227.383 806.834 225.34 804.958 223.784C804.292 221.283 803.803 218.743 803.493 216.18C803.451 215.613 803.331 215.053 803.139 214.514C802.796 213.68 802.102 213.006 801.812 212.156C801.54 211.367 801.622 210.456 801.127 209.776C805.248 210.85 809.328 210.609 813.607 210.545C814.978 210.549 816.347 210.475 817.708 210.323C818.342 210.212 818.985 210.147 819.629 210.128C820.953 210.128 822.195 210.684 823.411 211.173C826.846 212.561 830.467 213.653 834.198 213.803C838.05 213.955 841.858 213.097 845.621 212.247C847.276 211.872 848.995 211.467 850.308 210.437C851.62 209.406 852.358 207.548 851.55 206.135C850.934 205.071 849.66 204.549 848.471 204.105C845.179 202.871 841.869 201.669 838.697 200.177C833.853 197.939 830.229 192.94 824.922 192.107Z" fill="#454B69"/>
<path d="M818.133 179.542C817.673 180.486 816.899 181.259 816.328 182.147C815.373 183.61 815.058 185.369 815.45 187.049C815.656 187.88 816.06 188.654 816.631 189.313C817.202 189.973 817.925 190.499 818.745 190.851C819.476 191.127 820.245 191.303 821.029 191.373C822.06 191.493 823.159 191.518 824.07 191.046C824.751 190.658 825.311 190.103 825.689 189.44C826.477 188.191 826.925 186.782 827.335 185.38C828.094 182.792 828.741 180.137 828.648 177.451C828.615 176.526 828.422 175.485 827.614 174.951C827.196 174.723 826.734 174.579 826.255 174.529L822.391 173.874C821.644 173.746 820.341 173.227 819.694 173.738C819.046 174.249 818.997 175.76 818.885 176.468C818.71 177.515 818.601 178.578 818.133 179.542Z" fill="#A1616A"/>
<path d="M865.094 168.8L864.083 176.831C863.874 178.264 863.754 179.707 863.723 181.153C863.723 181.958 863.749 182.853 863.187 183.455C862.912 183.729 862.564 183.928 862.179 184.03C860.952 184.391 859.613 184.069 858.442 183.572C857.756 183.294 857.056 182.891 856.746 182.244C856.566 181.796 856.491 181.315 856.526 180.836C856.526 176.046 857.004 171.049 859.643 166.967C859.868 166.566 860.185 166.219 860.571 165.95C861.303 165.506 862.261 165.631 863.09 165.872C863.6 166.02 864.976 166.184 865.302 166.614C865.627 167.044 865.164 168.247 865.094 168.8Z" fill="#A1616A"/>
<path d="M838.285 139.755C844.108 139.755 848.829 135.279 848.829 129.757C848.829 124.236 844.108 119.759 838.285 119.759C832.461 119.759 827.74 124.236 827.74 129.757C827.74 135.279 832.461 139.755 838.285 139.755Z" fill="#A1616A"/>
<path d="M835.463 144.657C835.425 145.435 835.202 146.195 834.81 146.879C840.194 146.101 845.564 145.235 850.92 144.28C849.143 143.413 847.799 141.916 847.182 140.114C846.891 139.147 846.732 138.15 846.708 137.145C846.623 135.551 846.655 133.954 846.805 132.365C844.93 132.551 843.155 133.218 841.368 133.79C839.572 134.366 837.745 134.85 835.894 135.242C835.001 135.431 834.102 135.592 833.199 135.742C832.145 135.92 831.638 135.917 832.37 136.795C834.336 139.139 835.739 141.522 835.463 144.657Z" fill="#A1616A"/>
<path d="M838.702 143.322C837.311 143.519 835.852 143.741 834.742 144.558C834.32 144.902 833.918 145.268 833.538 145.655C831.333 147.685 828.219 148.501 825.542 149.934C825.106 150.139 824.719 150.427 824.406 150.781C824.113 151.167 823.963 151.659 823.656 152.042C823.299 152.487 822.733 152.764 822.455 153.256C822.177 153.747 822.238 154.27 822.209 154.792C822.142 155.939 821.685 157.027 821.33 158.124C819.705 163.376 820.595 169.233 818.135 174.194C818.248 174.479 818.421 174.74 818.643 174.961C818.866 175.181 819.133 175.357 819.429 175.477C820.048 175.688 820.695 175.82 821.351 175.868L826.802 176.51C827.581 176.601 828.407 176.688 829.118 176.379C828.467 178.081 828.007 179.843 827.745 181.637C827.612 182.733 827.407 183.82 827.13 184.892C826.38 187.335 824.494 189.371 822.259 190.763C821.977 190.902 821.74 191.11 821.57 191.365C821.278 191.921 821.711 192.543 822.019 193.087C822.912 194.665 822.789 196.559 822.777 198.347C822.765 200.136 822.956 202.099 824.274 203.382C825.053 204.141 826.119 204.552 827.156 204.943L835.682 208.173C837.089 208.741 838.541 209.206 840.023 209.562C842.27 210.048 844.604 210.028 846.909 209.934C848.432 209.873 849.953 209.78 851.473 209.656C852.077 209.654 852.671 209.506 853.198 209.226C853.651 208.886 854 208.437 854.208 207.926C855.395 205.479 855.793 202.624 857.632 200.575C858.895 199.167 860.854 198.042 860.998 196.2C861.065 195.284 860.634 194.392 860.629 193.473C860.629 192.343 861.252 191.268 861.214 190.141C861.135 188.305 859.311 186.905 859.021 185.089C858.282 180.484 860.749 175.885 862.263 171.455C862.535 170.664 862.887 169.789 863.689 169.45C864.492 169.111 865.623 169.289 865.91 168.539C866.633 166.656 866.806 164.448 866.712 162.446C866.659 161.288 866.226 160.155 866.276 158.994C866.311 158.177 866.586 157.383 866.659 156.569C866.771 155.339 866.428 154.117 866.074 152.928C865.971 152.504 865.818 152.092 865.617 151.701C865.4 151.346 865.145 151.013 864.855 150.709L863.429 149.101C862.761 148.348 862.055 147.568 861.086 147.188C860.772 146.452 859.77 145.943 859.053 145.538C858.329 145.149 857.582 144.801 856.815 144.496L848.749 141.119C848.447 140.975 848.124 140.876 847.791 140.825C847.3 140.809 846.812 140.904 846.367 141.103C843.907 142.027 841.338 142.949 838.702 143.322Z" fill="#9CA0E9"/>
<path d="M830.158 131.496C829.847 130.46 829.053 129.566 828.933 128.494C828.825 127.541 829.267 126.619 829.519 125.691C829.771 124.764 829.762 123.631 828.986 123.014C828.857 122.909 828.693 122.814 828.646 122.659C828.553 122.381 828.848 122.128 828.939 121.848C829.106 121.292 828.383 120.678 828.646 120.145C828.796 119.854 829.171 119.751 829.499 119.659C830.752 119.307 832.023 118.523 832.296 117.31C833.277 117.698 834.323 116.968 835.075 116.26C835.828 115.552 836.754 114.743 837.791 114.957L837.559 115.404C839.158 114.854 840.907 114.836 842.518 115.352H842.026C843.439 115.374 844.81 115.814 845.948 116.61C845.822 116.61 845.81 116.788 845.86 116.888C846.27 117.796 847.325 118.276 848.341 118.501C848.953 118.64 849.618 118.74 850.066 119.157C850.514 119.573 850.523 120.442 849.931 120.642C851.138 121.088 852.28 121.676 853.332 122.392C853.625 122.595 853.956 122.87 853.918 123.225C853.876 123.404 853.815 123.578 853.736 123.745C853.678 124.041 853.699 124.347 853.798 124.633L854.123 125.905C854.48 127.319 854.761 129.021 853.675 130.046C854.081 130.767 854.232 131.593 854.105 132.401C853.978 133.209 853.579 133.957 852.969 134.534C853.055 134.782 853.085 135.045 853.056 135.305C853.027 135.565 852.941 135.816 852.803 136.042C852.664 136.268 852.477 136.463 852.253 136.615C852.03 136.768 851.774 136.873 851.504 136.925C851.864 137.459 851.533 138.22 850.965 138.553C850.397 138.886 849.682 138.889 849.02 138.831C848.358 138.772 847.688 138.631 847.026 138.725C846.062 138.867 845.119 139.489 844.19 139.211C843.844 139.071 843.512 138.902 843.198 138.706C842.547 138.375 841.792 138.3 841.071 138.15C839.843 137.9 838.676 137.428 837.635 136.762C836.945 136.368 836.395 135.788 836.057 135.095C835.412 133.551 836.496 131.526 835.357 130.268C834.689 129.535 833.365 129.524 832.618 130.152C832.246 130.466 832.196 131.126 831.81 131.363C831.27 131.492 830.712 131.537 830.158 131.496Z" fill="#464353"/>
<path opacity="0.1" d="M815.83 211.131C815.414 210.818 815.055 210.443 814.767 210.02C814.479 209.595 814.364 209.084 814.445 208.584C814.331 209.216 814.374 209.865 814.572 210.479C814.77 211.092 815.117 211.653 815.584 212.117C816.32 212.83 817.699 213.53 818.774 213.286C818.622 212.469 816.513 211.681 815.83 211.131Z" fill="black"/>
<path d="M873.772 166.459C873.772 166.459 867.528 163.026 859.285 167.292C851.043 171.558 849.67 196.661 849.67 196.661C849.67 196.661 853.041 222.237 840.042 216.546C840.042 216.546 816.317 209.562 813.942 211.1C813.942 211.1 811.692 211.1 816.188 212.047C820.684 212.994 838.053 218.213 838.053 218.213C838.053 218.213 843.668 220.073 846.046 218.213C848.425 216.352 855.164 218.452 856.04 205.66C856.62 197.598 857.662 189.573 859.162 181.62L861.479 175.107L873.772 166.459Z" fill="#565661"/>
<path d="M874.522 206.012C874.522 206.012 871.774 180.078 876.279 170.722C880.198 162.568 865.043 166.381 861.089 167.492C860.477 167.665 859.944 168.027 859.572 168.519C857.229 171.644 848.823 184.166 851.301 200.921C851.301 200.921 852.299 215.844 846.055 218.21L865.295 212.333C866.856 211.855 868.441 211.458 870.04 211.114C872.079 210.675 875.4 209.428 874.522 206.012Z" fill="white"/>
<path opacity="0.1" d="M924.962 256.442C940.724 256.442 953.502 254.496 953.502 252.095C953.502 249.695 940.724 247.749 924.962 247.749C909.2 247.749 896.422 249.695 896.422 252.095C896.422 254.496 909.2 256.442 924.962 256.442Z" fill="#6C63FF"/>
<path d="M925.879 168.831H924.043V208.037H925.879V168.831Z" fill="#535461"/>
<path d="M937.421 207.917L937.307 209.684L937.143 212.183L937.076 213.222L936.915 215.722L936.844 216.76L936.68 219.26L934.829 247.607C934.744 248.824 934.175 249.964 933.236 250.798C932.297 251.631 931.06 252.095 929.774 252.095H920.146C918.858 252.095 917.618 251.628 916.68 250.791C915.742 249.954 915.175 248.81 915.096 247.59L913.239 219.24L913.078 216.741L913.011 215.702L912.844 213.203L912.777 212.164L912.616 209.664L912.498 207.898C912.478 207.559 912.531 207.221 912.653 206.902C912.775 206.583 912.965 206.291 913.21 206.044C913.455 205.797 913.75 205.6 914.078 205.465C914.406 205.329 914.759 205.259 915.117 205.257H934.806C935.165 205.259 935.52 205.33 935.849 205.467C936.178 205.604 936.474 205.803 936.719 206.052C936.964 206.301 937.152 206.595 937.273 206.916C937.394 207.237 937.444 207.578 937.421 207.917V207.917Z" fill="#565661"/>
<path d="M937.307 209.684L937.143 212.175H912.779L912.615 209.684H937.307Z" fill="#9D9CB5"/>
<path d="M937.076 213.216L936.915 215.71H913.012L912.848 213.216H937.076Z" fill="#9D9CB5"/>
<path d="M936.844 216.75L936.68 219.241H913.242L913.078 216.75H936.844Z" fill="#9D9CB5"/>
<path d="M909.809 183.525C920.506 190.863 924.961 202.338 924.961 202.338C924.961 202.338 912.073 201.919 901.373 194.581C890.674 187.244 886.225 175.771 886.225 175.771C886.225 175.771 899.115 176.19 909.809 183.525Z" fill="#9CA0E9"/>
<path d="M886.225 175.771C886.225 175.771 899.601 182.811 903.895 188.641C908.189 194.47 924.961 202.338 924.961 202.338" stroke="#535461" stroke-width="2" stroke-miterlimit="10"/>
<path d="M916.715 168.744C922.538 172.735 924.963 178.984 924.963 178.984C924.963 178.984 917.933 178.754 912.125 174.763C906.317 170.772 903.895 164.523 903.895 164.523C903.895 164.523 910.895 164.751 916.715 168.744Z" fill="#9CA0E9"/>
<path d="M903.895 164.523C903.895 164.523 911.176 168.356 913.51 171.527C915.845 174.699 924.977 178.984 924.977 178.984" stroke="#535461" stroke-width="2" stroke-miterlimit="10"/>
<path d="M933.422 178.665C926.735 185.633 925.32 194.74 925.32 194.74C925.32 194.74 934.749 192.546 941.43 185.575C948.111 178.604 949.531 169.5 949.531 169.5C949.531 169.5 940.109 171.697 933.422 178.665Z" fill="#9CA0E9"/>
<path d="M949.537 169.502C949.537 169.502 940.826 176.646 938.612 181.567C936.398 186.488 925.32 194.739 925.32 194.739" stroke="#535461" stroke-width="2" stroke-miterlimit="10"/>
<path d="M798.139 161.89V162.523H778.336V162.01C778.879 161.817 779.393 161.557 779.865 161.238C780.706 160.667 781.391 159.914 781.864 159.041C782.337 158.169 782.583 157.203 782.583 156.222C782.583 155.709 782.515 155.199 782.381 154.703C782.141 153.81 781.694 152.978 781.072 152.271C780.449 151.563 779.668 150.996 778.784 150.612H798.004C797.121 150.996 796.339 151.563 795.717 152.271C795.094 152.978 794.647 153.81 794.407 154.703C794.274 155.199 794.207 155.71 794.208 156.222C794.208 157.202 794.453 158.169 794.926 159.041C795.398 159.914 796.083 160.666 796.923 161.238C797.303 161.495 797.711 161.713 798.139 161.89V161.89Z" fill="#DFE6F5"/>
<path opacity="0.1" d="M798.005 150.612C797.122 150.996 796.34 151.563 795.718 152.271C795.095 152.978 794.648 153.81 794.408 154.703H782.382C782.142 153.81 781.695 152.978 781.073 152.271C780.45 151.563 779.669 150.996 778.785 150.612H798.005Z" fill="black"/>
<path d="M755.662 147.376V150.942C755.662 152.909 757.179 154.506 759.054 154.506H817.315C819.189 154.506 820.709 152.909 820.709 150.942V147.376H755.662Z" fill="#DFE6F5"/>
<path opacity="0.1" d="M798.139 161.89V162.523H778.336V162.009C778.879 161.816 779.393 161.557 779.865 161.237H796.923C797.303 161.494 797.711 161.713 798.139 161.89V161.89Z" fill="black"/>
<path d="M803.69 161.435H772.786C772.238 161.435 771.793 161.855 771.793 162.375C771.793 162.894 772.238 163.315 772.786 163.315H803.69C804.238 163.315 804.683 162.894 804.683 162.375C804.683 161.855 804.238 161.435 803.69 161.435Z" fill="#DFE6F5"/>
<path d="M820.709 108.32C820.709 107.897 820.621 107.479 820.451 107.089C820.28 106.698 820.03 106.344 819.715 106.045C819.4 105.746 819.025 105.509 818.613 105.348C818.202 105.187 817.76 105.104 817.315 105.104H759.054C758.608 105.104 758.167 105.187 757.755 105.348C757.344 105.51 756.97 105.746 756.655 106.045C756.34 106.344 756.09 106.699 755.92 107.089C755.749 107.479 755.662 107.898 755.662 108.32V148.071H820.709V108.32Z" fill="#474157"/>
<path d="M818.935 109.755V143.916C818.935 144.124 818.892 144.33 818.808 144.522C818.725 144.715 818.602 144.889 818.447 145.037C818.292 145.184 818.108 145.301 817.905 145.381C817.702 145.46 817.485 145.501 817.265 145.501H759.107C758.888 145.501 758.67 145.46 758.467 145.381C758.265 145.301 758.081 145.184 757.925 145.037C757.77 144.889 757.647 144.715 757.564 144.522C757.48 144.33 757.437 144.124 757.438 143.916V109.755C757.436 109.477 757.513 109.204 757.66 108.964C757.807 108.723 758.018 108.523 758.272 108.384C758.526 108.245 758.814 108.172 759.107 108.172H817.265C817.708 108.172 818.133 108.339 818.446 108.636C818.759 108.933 818.935 109.336 818.935 109.755V109.755Z" fill="#E4E4F1"/>
<path d="M788.186 107.379C788.618 107.379 788.968 107.047 788.968 106.637C788.968 106.228 788.618 105.896 788.186 105.896C787.754 105.896 787.404 106.228 787.404 106.637C787.404 107.047 787.754 107.379 788.186 107.379Z" fill="white"/>
<path d="M788.186 152.92C789.252 152.92 790.116 152.1 790.116 151.089C790.116 150.079 789.252 149.259 788.186 149.259C787.12 149.259 786.256 150.079 786.256 151.089C786.256 152.1 787.12 152.92 788.186 152.92Z" fill="white"/>
<path d="M818.937 109.755H757.445C757.445 109.336 757.621 108.933 757.934 108.636C758.247 108.339 758.672 108.172 759.115 108.172H817.267C817.71 108.172 818.135 108.339 818.448 108.636C818.761 108.933 818.937 109.336 818.937 109.755Z" fill="#C8CAD7"/>
<path d="M759.108 109.361C759.34 109.361 759.527 109.183 759.527 108.964C759.527 108.745 759.34 108.567 759.108 108.567C758.877 108.567 758.689 108.745 758.689 108.964C758.689 109.183 758.877 109.361 759.108 109.361Z" fill="#EDEDF4"/>
<path d="M760.36 109.361C760.592 109.361 760.779 109.183 760.779 108.964C760.779 108.745 760.592 108.567 760.36 108.567C760.129 108.567 759.941 108.745 759.941 108.964C759.941 109.183 760.129 109.361 760.36 109.361Z" fill="#EDEDF4"/>
<path d="M761.614 109.361C761.845 109.361 762.033 109.183 762.033 108.964C762.033 108.745 761.845 108.567 761.614 108.567C761.383 108.567 761.195 108.745 761.195 108.964C761.195 109.183 761.383 109.361 761.614 109.361Z" fill="#EDEDF4"/>
</g>
<defs>
<linearGradient id="paint0_linear" x1="748.19" y1="195.904" x2="748.87" y2="195.904" gradientUnits="userSpaceOnUse">
<stop stop-color="#808080" stop-opacity="0.25"/>
<stop offset="0.54" stop-color="#808080" stop-opacity="0.12"/>
<stop offset="1" stop-color="#808080" stop-opacity="0.1"/>
</linearGradient>
<clipPath id="clip0">
<rect width="1058" height="304" fill="white"/>
</clipPath>
</defs>
</svg>
