<svg width="1063" height="441" viewBox="0 0 1063 441" fill="none" xmlns="http://www.w3.org/2000/svg">
<g clip-path="url(#clip0)">
<path d="M52.8627 234.681C57.3728 238.333 63.2545 237.806 66.4459 233.865C69.6373 229.924 68.7945 223.145 64.4197 220.409C60.0448 217.673 53.7246 216.43 50.8365 221.225C47.9484 226.02 48.3527 231.029 52.8627 234.681Z" fill="#00D3AE"/>
<path d="M1163 0H-23V588H1163V0Z" fill="#4E54C8"/>
<path d="M154.226 353.065C191.047 382.882 240.732 376.524 268.841 341.812C296.951 307.1 291.99 249.384 256.019 227.361C220.047 205.339 167.228 196.695 141.403 238.615C115.578 280.534 117.405 323.248 154.226 353.065Z" fill="#595FCA"/>
<path d="M108.863 206.69C113.373 210.342 119.255 209.815 122.446 205.874C125.637 201.933 124.795 195.154 120.42 192.418C116.045 189.682 109.725 188.439 106.837 193.234C103.948 198.029 104.353 203.038 108.863 206.69Z" fill="#595FCA"/>
<path d="M1046.03 461.697C942.506 555.061 946.069 572.094 966.824 595.108C987.58 618.122 1014.31 601.412 1103.1 516.17C1191.9 430.928 1188.68 429.244 1178.54 393.048C1142.92 374.139 1149.55 368.333 1046.03 461.697Z" fill="white" fill-opacity="0.06"/>
<path d="M838.555 363.642C856.644 378.289 881.446 374.678 895.742 357.024C910.038 339.37 908.057 310.455 890.325 299.711C872.594 288.967 846.358 285.078 833.139 306.329C819.919 327.579 820.467 348.994 838.555 363.642Z" fill="#595FCA"/>
<path opacity="0.5" d="M939.304 107.173C939.262 107.128 939.22 107.084 939.178 107.039C912.071 78.2603 909.72 38.4597 930.942 10.5717C937.471 1.99222 938.399 -10.1948 930.424 -18.6611L906.189 -44.3918C847.558 0.508714 843.315 82.8663 896.713 139.559C896.755 139.603 896.798 139.648 896.84 139.693L939.304 107.173Z" fill="#595FCA"/>
<path opacity="0.5" d="M939.305 107.173C939.347 107.218 939.389 107.263 939.431 107.308C966.537 136.086 1009.71 144.622 1043.67 130.254C1054.12 125.834 1067.6 126.982 1075.58 135.448L1099.81 161.179C1041.18 206.08 950.365 196.52 896.967 139.828C896.924 139.783 896.882 139.738 896.84 139.693L939.305 107.173Z" fill="#595FCA"/>
<path d="M452.728 45.6385C452.692 45.6403 452.656 45.642 452.62 45.6438C429.196 46.4153 409.654 30.5857 404.33 8.49893C402.692 1.70352 397.313 -3.93373 390.419 -3.70882L369.478 -3.01714C369.099 44.3054 406.2 81.4364 452.346 79.9184C452.382 79.9166 452.418 79.9148 452.454 79.913L452.728 45.6385Z" fill="#5359C9"/>
<path d="M452.728 45.6393C452.764 45.6375 452.803 45.639 452.839 45.6372C476.263 44.8657 496.066 27.7419 501.744 5.2905C503.492 -1.61618 508.966 -7.61147 515.856 -7.83928L536.8 -8.52811C536.424 38.7974 498.708 78.3906 452.565 79.9114C452.529 79.9132 452.49 79.9121 452.454 79.9139L452.728 45.6393Z" fill="#5359C9"/>
</g>
<defs>
<clipPath id="clip0">
<rect width="1063" height="441" fill="white"/>
</clipPath>
</defs>
</svg>
